<svg width="260" height="260" viewBox="0 0 260 260" fill="none" xmlns="http://www.w3.org/2000/svg">
<path d="M130 260C201.797 260 260 201.797 260 130C260 58.203 201.797 0 130 0C58.203 0 0 58.203 0 130C0 201.797 58.203 260 130 260Z" fill="#F8F8F8"/>
<path d="M250 129.985C250 196.268 196.267 250 129.997 250C126.194 250 122.426 249.828 118.724 249.478C59.0573 243.906 12.0708 194.66 10.0712 134.032C10.0237 132.683 10 131.334 10 129.985C10 126.955 10.1127 123.948 10.3382 120.966C14.9484 58.902 66.7648 10 130.003 10C184.59 10 230.657 46.4465 245.212 96.3276C245.467 97.2236 245.722 98.1078 245.965 99.0276C246.855 102.39 247.607 105.81 248.22 109.287C249.405 116.123 250.001 123.048 250 129.985Z" fill="#F8F8F8"/>
<path opacity="0.4" d="M250 128.773C250 196.277 196.253 251 129.964 251C65.0294 251 12.1307 198.483 10 132.894C23.6861 133.293 37.6275 132.834 50.5599 128.295C64.5784 123.382 76.5789 113.979 89.4876 106.539C124.166 86.6263 165.551 81.2658 205.167 85.2061C218.622 86.5417 232.575 89.3216 245.204 94.4343C248.394 105.581 250.009 117.133 250 128.743V128.773Z" fill="#1A5A96"/>
<path opacity="0.4" d="M250 128.39C250 196.106 196.365 251 130.215 251C126.419 251 122.658 250.825 118.962 250.467C99.5388 240.648 83.0802 225.62 71.3388 206.985C59.5974 188.35 53.0127 166.805 52.2856 144.643C65.9432 145.043 79.8554 144.582 92.7607 140.03C106.756 135.101 118.725 125.668 131.607 118.205C165.899 98.4057 206.759 92.9556 245.967 96.7022C246.855 100.137 247.605 103.631 248.217 107.184C249.406 114.187 250.002 121.282 250 128.39Z" fill="#1A5A96"/>
<path d="M250 128.378C250 196.1 196.268 251 130 251C63.7315 251 10 196.1 10 128.378C10 125.282 10.1127 122.21 10.3382 119.162C19.8015 120.344 29.0376 122.97 37.7379 126.953C51.8116 133.41 64.3308 143.323 78.9681 148.301C89.648 151.938 101.004 152.805 112.242 153.151C126.274 153.606 140.603 153.242 153.875 148.567C167.89 143.638 179.881 134.204 192.792 126.771C209.956 116.877 228.783 110.565 248.214 107.194C249.403 114.19 250.001 121.278 250 128.378Z" fill="#4585C1"/>
<path d="M211.758 207.672H117.148C116.599 207.672 116.056 207.588 115.532 207.422L115.477 207.4C85.8523 192.685 60.4531 184.654 37.8279 182.847L37.7418 182.83C35.5037 182.122 34 180.07 34 177.724V51.3597C34 49.6342 34.7988 48.0596 36.1914 47.0399C37.5842 46.0202 39.3268 45.7341 40.9735 46.254L115.766 69.899C116.214 70.0406 116.679 70.1123 117.148 70.1123H211.758C214.712 70.1123 217.115 72.5146 217.115 75.4673V202.317C217.115 205.27 214.712 207.672 211.758 207.672ZM115.794 206.693C116.233 206.828 116.688 206.897 117.148 206.897H211.758C214.284 206.897 216.34 204.843 216.34 202.317V75.4673C216.34 72.9416 214.284 70.8869 211.758 70.8869H117.148C116.6 70.8869 116.056 70.8032 115.532 70.6377L40.7397 46.9926C39.3314 46.5471 37.8408 46.7926 36.6495 47.6648C35.4582 48.5371 34.775 49.8838 34.775 51.3597V177.724C34.775 179.717 36.0427 181.461 37.9346 182.078C60.6418 183.9 86.1111 191.951 115.794 206.693Z" fill="#3F3D56"/>
<path d="M119.674 201.934C145.47 192.811 174.249 193.858 204.821 201.024C208.659 201.924 212.339 199.036 212.339 195.095V79.6348C212.339 76.831 210.426 74.3794 207.701 73.7134C175.45 65.8308 145.325 64.3805 118.778 73.7473C116.833 74.4335 114.674 74.0617 113.033 72.8131C90.6617 55.7926 67.7664 47.2586 44.1875 49.7926C41.103 50.1241 38.7764 52.7515 38.7764 55.8522V172.572C38.7764 175.697 41.1422 178.31 44.2523 178.634C69.6313 181.272 92.952 189.268 114.64 201.512C116.176 202.379 118.012 202.522 119.674 201.934Z" fill="#D1DEEA"/>
<path d="M118.846 195.459C117.089 195.459 115.359 194.977 113.834 194.03C95.6196 182.724 75.7754 176.119 54.8531 174.399C49.948 173.995 46.1055 169.814 46.1055 164.879V65.1806C46.1055 60.0635 50.0759 55.8707 55.1447 55.6353C70.3776 54.9253 88.8737 61.7151 113.35 76.9952C115.42 78.2875 117.938 78.6712 120.257 78.0494C143.518 71.8086 168.733 71.6263 197.344 77.492C201.785 78.4028 205.009 82.3432 205.009 86.8617V184.176C205.009 187.113 203.688 189.84 201.384 191.659C199.063 193.492 196.076 194.149 193.189 193.462C166.124 187.023 142.883 187.489 122.137 194.885C121.06 195.269 119.947 195.459 118.846 195.459ZM57.3193 56.3599C56.5982 56.3599 55.8869 56.3762 55.1806 56.4091C50.5264 56.6253 46.8805 60.4781 46.8805 65.1806V164.879C46.8805 169.413 50.4104 173.256 54.9167 173.626C75.9627 175.357 95.9229 182 114.243 193.372C116.522 194.788 119.305 195.073 121.877 194.156C142.767 186.707 166.153 186.234 193.368 192.708C196.023 193.34 198.769 192.736 200.903 191.051C203.02 189.38 204.234 186.874 204.234 184.176V86.8617C204.234 82.7093 201.271 79.088 197.188 78.2508C168.698 72.4094 143.6 72.5883 120.458 78.7975C117.931 79.4749 115.191 79.0579 112.939 77.6522C89.7439 63.1716 71.9816 56.3599 57.3193 56.3599Z" fill="white"/>
<path d="M117.086 78.6276L116.311 78.6348L117.39 195.282L118.165 195.275L117.086 78.6276Z" fill="white"/>
<path d="M53.6608 70.9298L53.4174 71.665L107.681 89.6106L107.924 88.8753L53.6608 70.9298Z" fill="#3F3D56"/>
<path d="M53.6608 85.2853L53.4174 86.0205L107.681 103.966L107.924 103.231L53.6608 85.2853Z" fill="#3F3D56"/>
<path d="M53.6608 99.6427L53.4174 100.378L107.681 118.323L107.924 117.588L53.6608 99.6427Z" fill="#3F3D56"/>
<path d="M53.6608 113.999L53.4174 114.734L107.681 132.68L107.924 131.945L53.6608 113.999Z" fill="#3F3D56"/>
<path d="M195.182 89.6523H130.146V90.427H195.182V89.6523Z" fill="#3F3D56"/>
<path d="M195.182 103.212H130.146V103.987H195.182V103.212Z" fill="#3F3D56"/>
<path d="M195.182 116.771H130.146V117.545H195.182V116.771Z" fill="#3F3D56"/>
<path d="M195.182 130.33H130.146V131.105H195.182V130.33Z" fill="#3F3D56"/>
<path d="M195.182 143.889H130.146V144.663H195.182V143.889Z" fill="#3F3D56"/>
<path d="M195.182 157.447H130.146V158.222H195.182V157.447Z" fill="#3F3D56"/>
<path d="M197.914 197.214C202.836 197.214 206.826 193.226 206.826 188.306C206.826 183.387 202.836 179.398 197.914 179.398C192.991 179.398 189.001 183.387 189.001 188.306C189.001 193.226 192.991 197.214 197.914 197.214Z" fill="#1A5A96"/>
<g clip-path="url(#clip0_320_3036)">
<path d="M196.48 191.803L193.332 188.656C193.142 188.467 193.142 188.161 193.332 187.972L194.017 187.287C194.206 187.098 194.512 187.098 194.702 187.287L196.823 189.407L201.365 184.866C201.555 184.677 201.861 184.677 202.05 184.866L202.735 185.551C202.925 185.74 202.925 186.047 202.735 186.236L197.165 191.803C196.976 191.992 196.669 191.992 196.48 191.803Z" fill="white"/>
</g>
<g clip-path="url(#clip1_320_3036)">
<path d="M51.6878 110.939L50.263 108.473C50.1774 108.324 50.2282 108.135 50.3765 108.049L50.9134 107.74C51.0617 107.654 51.2513 107.705 51.3369 107.853L52.2967 109.515L55.8575 107.46C56.0058 107.374 56.1954 107.425 56.281 107.573L56.591 108.11C56.6766 108.258 56.6258 108.448 56.4775 108.533L52.1113 111.053C51.963 111.138 51.7734 111.087 51.6878 110.939Z" fill="#1A5A96"/>
</g>
<g clip-path="url(#clip2_320_3036)">
<path d="M51.6878 97.3846L50.263 94.9179C50.1774 94.7698 50.2282 94.5803 50.3765 94.4947L50.9134 94.1848C51.0617 94.0993 51.2513 94.1501 51.3369 94.2983L52.2967 95.9599L55.8575 93.9051C56.0058 93.8195 56.1954 93.8703 56.281 94.0185L56.591 94.5552C56.6766 94.7033 56.6258 94.8928 56.4775 94.9784L52.1113 97.498C51.963 97.5835 51.7734 97.5328 51.6878 97.3846Z" fill="#1A5A96"/>
</g>
<g clip-path="url(#clip3_320_3036)">
<path d="M51.6878 82.2791L50.263 79.8125C50.1774 79.6643 50.2282 79.4748 50.3765 79.3892L50.9134 79.0794C51.0617 78.9938 51.2513 79.0446 51.3369 79.1928L52.2967 80.8544L55.8575 78.7996C56.0058 78.7141 56.1954 78.7648 56.281 78.913L56.591 79.4497C56.6766 79.5979 56.6258 79.7874 56.4775 79.8729L52.1113 82.3925C51.963 82.4781 51.7734 82.4273 51.6878 82.2791Z" fill="#1A5A96"/>
</g>
<path d="M70.9978 163.196C71.3449 159.227 72.9939 155.434 75.633 152.45C78.2039 149.543 81.7178 147.549 85.5072 146.736C87.6226 146.283 89.8139 146.194 91.9561 146.5C92.4689 146.573 92.4553 147.387 91.937 147.313C88.291 146.793 84.5226 147.428 81.2465 149.111C77.8885 150.835 75.2009 153.641 73.5406 157.023C72.5911 158.958 71.9989 161.069 71.8112 163.216C71.7658 163.735 70.9521 163.719 70.9978 163.196Z" fill="white"/>
<path d="M91.0541 143.234L97.3171 146.323C97.5449 146.435 97.5823 146.806 97.3888 146.966L91.4598 151.864C91.0586 152.196 90.4937 151.61 90.8982 151.276L96.8271 146.378L96.8988 147.021L90.6358 143.932C90.1655 143.7 90.5876 143.004 91.0541 143.234Z" fill="white"/>
<path d="M130.835 138.178L132.047 136.967C132.195 136.818 132.195 136.577 132.047 136.428L131.777 136.159C131.629 136.011 131.388 136.011 131.239 136.159L130.027 137.37L128.815 136.159C128.667 136.011 128.425 136.011 128.277 136.159L128.007 136.428C127.859 136.577 127.859 136.818 128.007 136.967L129.219 138.178L128.007 139.389C127.859 139.538 127.859 139.779 128.007 139.928L128.277 140.197C128.425 140.345 128.667 140.345 128.815 140.197L130.027 138.986L131.239 140.197C131.388 140.345 131.629 140.345 131.777 140.197L132.047 139.928C132.195 139.779 132.195 139.538 132.047 139.389L130.835 138.178Z" fill="#1A5A96"/>
<path d="M130.835 124.235L132.047 123.023C132.195 122.875 132.195 122.634 132.047 122.485L131.777 122.216C131.629 122.067 131.388 122.067 131.239 122.216L130.027 123.427L128.815 122.216C128.667 122.067 128.425 122.067 128.277 122.216L128.007 122.485C127.859 122.634 127.859 122.875 128.007 123.023L129.219 124.235L128.007 125.446C127.859 125.594 127.859 125.835 128.007 125.984L128.277 126.253C128.425 126.402 128.667 126.402 128.815 126.253L130.027 125.042L131.239 126.253C131.388 126.402 131.629 126.402 131.777 126.253L132.047 125.984C132.195 125.836 132.195 125.595 132.047 125.446L130.835 124.235Z" fill="#1A5A96"/>
<path d="M130.835 111.066L132.047 109.855C132.195 109.706 132.195 109.465 132.047 109.316L131.777 109.047C131.629 108.898 131.388 108.898 131.239 109.047L130.027 110.258L128.815 109.047C128.667 108.898 128.425 108.898 128.277 109.047L128.007 109.316C127.859 109.465 127.859 109.706 128.007 109.855L129.219 111.066L128.007 112.277C127.859 112.426 127.859 112.666 128.007 112.815L128.277 113.084C128.425 113.233 128.667 113.233 128.815 113.084L130.027 111.873L131.239 113.084C131.388 113.233 131.629 113.233 131.777 113.084L132.047 112.815C132.195 112.667 132.195 112.426 132.047 112.277L130.835 111.066Z" fill="#1A5A96"/>
<g clip-path="url(#clip4_320_3036)">
<path d="M130.835 97.1233L132.047 95.9122C132.195 95.7635 132.195 95.5226 132.047 95.3738L131.777 95.1046C131.629 94.956 131.388 94.956 131.239 95.1046L130.027 96.3158L128.815 95.1046C128.667 94.956 128.425 94.956 128.277 95.1046L128.007 95.3738C127.859 95.5224 127.859 95.7634 128.007 95.9122L129.219 97.1233L128.007 98.3345C127.859 98.4831 127.859 98.7241 128.007 98.8729L128.277 99.142C128.425 99.2907 128.667 99.2907 128.815 99.142L130.027 97.9309L131.239 99.142C131.388 99.2907 131.629 99.2907 131.777 99.142L132.047 98.8729C132.195 98.7242 132.195 98.4833 132.047 98.3345L130.835 97.1233Z" fill="#1A5A96"/>
</g>
<defs>
<clipPath id="clip0_320_3036">
<rect width="9.68757" height="9.6826" fill="white" transform="translate(193.19 183.493)"/>
</clipPath>
<clipPath id="clip1_320_3036">
<rect width="6.19983" height="6.19708" fill="white" transform="matrix(0.965959 0.258695 -0.258943 0.965893 51.0309 105.258)"/>
</clipPath>
<clipPath id="clip2_320_3036">
<rect width="6.19983" height="6.19708" fill="white" transform="matrix(0.965959 0.258695 -0.258943 0.965893 51.0309 91.7031)"/>
</clipPath>
<clipPath id="clip3_320_3036">
<rect width="6.19983" height="6.19708" fill="white" transform="matrix(0.965959 0.258695 -0.258943 0.965893 51.0309 76.5977)"/>
</clipPath>
<clipPath id="clip4_320_3036">
<rect width="6.20004" height="6.19687" fill="white" transform="translate(126.927 94.0254)"/>
</clipPath>
</defs>
</svg>
