<svg width="260" height="260" viewBox="0 0 260 260" fill="none" xmlns="http://www.w3.org/2000/svg">
<path opacity="0.05" d="M130 260C180.81 260 222 256.866 222 253C222 249.134 180.81 246 130 246C79.1898 246 38 249.134 38 253C38 256.866 79.1898 260 130 260Z" fill="black"/>
<path d="M130 260C201.797 260 260 201.797 260 130C260 58.203 201.797 0 130 0C58.203 0 0 58.203 0 130C0 201.797 58.203 260 130 260Z" fill="#E0E0E0"/>
<path d="M250 129.985C250 196.268 196.267 250 129.997 250C126.194 250 122.426 249.828 118.724 249.478C59.0573 243.906 12.0708 194.66 10.0712 134.032C10.0237 132.683 10 131.334 10 129.985C10 126.955 10.1127 123.948 10.3382 120.966C14.9484 58.902 66.7648 10 130.003 10C184.59 10 230.657 46.4465 245.212 96.3276C245.467 97.2236 245.722 98.1078 245.965 99.0276C246.855 102.39 247.607 105.81 248.22 109.287C249.405 116.123 250.001 123.048 250 129.985Z" fill="#F8F8F8"/>
<path opacity="0.4" d="M250 129.825C250 196.196 196.253 250 129.964 250C65.0294 250 12.1307 198.365 10 133.878C23.6861 134.27 37.6275 133.818 50.5599 129.356C64.5784 124.525 76.5789 115.28 89.4876 107.965C124.166 88.3868 165.551 83.1164 205.167 86.9905C218.622 88.3037 232.575 91.0369 245.204 96.0637C248.394 107.023 250.009 118.381 250 129.796V129.825Z" fill="#1A5A96"/>
<path opacity="0.4" d="M250 129.45C250 196.028 196.365 250.001 130.215 250.001C126.419 250.001 122.658 249.828 118.962 249.476C99.5389 239.822 83.0803 225.047 71.3389 206.725C59.5975 188.403 53.0128 167.219 52.2858 145.43C65.9433 145.823 79.8555 145.37 92.7608 140.894C106.756 136.048 118.726 126.773 131.607 119.436C165.899 99.9689 206.759 94.6104 245.967 98.294C246.855 101.672 247.605 105.107 248.217 108.6C249.406 115.485 250.002 122.461 250 129.45Z" fill="#1A5A96"/>
<path d="M250 129.437C250 196.022 196.268 250 130 250C63.7315 250 10 196.022 10 129.437C10 126.393 10.1127 123.373 10.3382 120.376C19.8015 121.538 29.0376 124.12 37.7379 128.036C51.8116 134.385 64.3308 144.131 78.9681 149.025C89.648 152.602 101.004 153.454 112.242 153.794C126.274 154.241 140.603 153.884 153.875 149.288C167.89 144.441 179.881 135.166 192.792 127.858C209.956 118.129 228.783 111.924 248.214 108.609C249.403 115.488 250.001 122.456 250 129.437Z" fill="#4585C1"/>
<path d="M188.853 171.876C174.664 159.688 177.515 147.595 183.876 131.933C194.9 104.792 176.599 73.6452 149.999 65.5887C121.279 56.89 89.4998 70.59 78.81 99.5254C76.1149 106.849 74.9581 114.657 75.4128 122.455C75.9486 131.666 79.963 138.97 82.8609 147.491C88.1787 163.131 74.173 176.407 62.2506 184.151C47.7794 193.567 51.0217 196.578 59.6449 197.202C66.8728 197.726 73.3964 195.784 79.8232 192.511C82.6676 191.062 92.4026 186.609 93.7763 183.598C90.0093 191.888 82.3486 206.265 87.1405 215.432C93.0457 226.727 107.89 205.526 110.857 201.148C113.513 197.229 124.14 175.807 130.529 186.518C136.361 196.295 133.188 210.335 141.578 219.137C151.736 229.8 157.394 213.428 157.473 205.35C157.524 200.233 155.587 175.465 166.718 186.66C173.341 193.326 183.075 208.853 194.099 207.557C206.075 206.149 187.259 186.366 185.361 183.021C187.028 184.355 201.953 193.661 202 185.989C202.034 180.131 192.698 175.181 188.853 171.876Z" fill="#FCBA19"/>
</svg>
