<svg width="260" height="260" viewBox="0 0 260 260" fill="none" xmlns="http://www.w3.org/2000/svg">
<path d="M130 260C201.797 260 260 201.797 260 130C260 58.203 201.797 0 130 0C58.203 0 0 58.203 0 130C0 201.797 58.203 260 130 260Z" fill="#F8F8F8"/>
<path d="M250 129.985C250 196.268 196.267 250 129.997 250C126.194 250 122.426 249.828 118.724 249.478C59.0573 243.906 12.0708 194.66 10.0712 134.032C10.0237 132.683 10 131.334 10 129.985C10 126.955 10.1127 123.948 10.3382 120.966C14.9484 58.902 66.7648 10 130.003 10C184.59 10 230.657 46.4465 245.212 96.3276C245.467 97.2236 245.722 98.1078 245.965 99.0276C246.855 102.39 247.607 105.81 248.22 109.287C249.405 116.123 250.001 123.048 250 129.985Z" fill="#F8F8F8"/>
<path opacity="0.4" d="M250 128.773C250 196.277 196.253 251 129.964 251C65.0294 251 12.1307 198.483 10 132.894C23.6861 133.293 37.6275 132.834 50.5599 128.295C64.5784 123.382 76.5789 113.979 89.4876 106.539C124.166 86.6263 165.551 81.2658 205.167 85.2061C218.622 86.5417 232.575 89.3216 245.204 94.4343C248.394 105.581 250.009 117.133 250 128.743V128.773Z" fill="#1A5A96"/>
<path opacity="0.4" d="M250 128.39C250 196.106 196.365 251 130.215 251C126.419 251 122.658 250.825 118.962 250.467C99.5388 240.648 83.0802 225.62 71.3388 206.985C59.5974 188.35 53.0127 166.805 52.2856 144.643C65.9432 145.043 79.8554 144.582 92.7607 140.03C106.756 135.101 118.725 125.668 131.607 118.205C165.899 98.4057 206.759 92.9556 245.967 96.7022C246.855 100.137 247.605 103.631 248.217 107.184C249.406 114.187 250.002 121.282 250 128.39Z" fill="#1A5A96"/>
<path d="M250 128.378C250 196.1 196.268 251 130 251C63.7315 251 10 196.1 10 128.378C10 125.282 10.1127 122.21 10.3382 119.162C19.8015 120.344 29.0376 122.97 37.7379 126.953C51.8116 133.41 64.3308 143.323 78.9681 148.301C89.648 151.938 101.004 152.805 112.242 153.151C126.274 153.606 140.603 153.242 153.875 148.567C167.89 143.638 179.881 134.204 192.792 126.771C209.956 116.877 228.783 110.565 248.214 107.194C249.403 114.19 250.001 121.278 250 128.378Z" fill="#4585C1"/>
<rect opacity="0.5" x="147.634" y="89.4092" width="92.1781" height="91.3766" rx="8" fill="white"/>
<rect x="75.4946" y="115.059" width="108.61" height="107.808" rx="8" fill="white"/>
<rect opacity="0.5" x="20.1877" y="89.4092" width="92.1781" height="91.3766" rx="8" fill="white"/>
<path d="M36.6002 117.014C35.7592 117.014 34.9527 117.348 34.3581 117.942C33.7634 118.537 33.4294 119.344 33.4294 120.184C33.4294 121.025 33.7634 121.832 34.3581 122.427C34.9527 123.021 35.7592 123.355 36.6002 123.355H76.4572V121.972C76.4571 120.989 76.7011 120.021 77.1674 119.156C77.6336 118.29 78.3075 117.554 79.1285 117.014H36.6002Z" fill="#B7D5F1"/>
<path d="M72.8677 109.879H59.3918C58.5509 109.879 57.7444 109.545 57.1497 108.95C56.5551 108.355 56.221 107.549 56.221 106.708C56.221 105.867 56.5551 105.06 57.1497 104.466C57.7444 103.871 58.5509 103.537 59.3918 103.537H72.8677C73.7087 103.537 74.5152 103.871 75.1098 104.466C75.7045 105.06 76.0385 105.867 76.0385 106.708C76.0385 107.549 75.7045 108.355 75.1098 108.95C74.5152 109.545 73.7087 109.879 72.8677 109.879Z" fill="#B7D5F1"/>
<path d="M76.0591 180.784H26.738C24.9516 180.782 23.2389 180.071 21.9757 178.808C20.7126 177.545 20.002 175.832 20 174.046V96.028C20.002 94.2416 20.7126 92.5289 21.9757 91.2658C23.2389 90.0026 24.9516 89.2921 26.738 89.29H105.522C107.308 89.2921 109.021 90.0026 110.284 91.2658C111.547 92.5289 112.258 94.2416 112.26 96.028V115.365H111.467V96.028C111.466 94.4518 110.839 92.9406 109.724 91.826C108.609 90.7115 107.098 90.0845 105.522 90.0827H26.738C25.1617 90.0845 23.6506 90.7115 22.536 91.826C21.4214 92.9406 20.7945 94.4518 20.7927 96.028V174.046C20.7945 175.622 21.4214 177.133 22.536 178.248C23.6506 179.362 25.1617 179.989 26.738 179.991H76.0591V180.784Z" fill="#3F3D56"/>
<path d="M180.872 117.014C181.693 117.554 182.367 118.29 182.833 119.156C183.299 120.021 183.543 120.989 183.543 121.972V123.355H223.4C224.241 123.355 225.048 123.021 225.642 122.427C226.237 121.832 226.571 121.025 226.571 120.184C226.571 119.344 226.237 118.537 225.642 117.942C225.048 117.348 224.241 117.014 223.4 117.014H180.872Z" fill="#B7D5F1"/>
<path d="M183.961 106.708C183.962 105.867 184.297 105.061 184.891 104.467C185.485 103.872 186.291 103.538 187.132 103.537H200.608C201.449 103.537 202.255 103.871 202.85 104.466C203.445 105.06 203.779 105.867 203.779 106.708C203.779 107.549 203.445 108.355 202.85 108.95C202.255 109.545 201.449 109.879 200.608 109.879H187.132C186.291 109.878 185.485 109.543 184.891 108.949C184.297 108.355 183.962 107.549 183.961 106.708Z" fill="#B7D5F1"/>
<path d="M183.941 180.784H233.262C235.048 180.782 236.761 180.071 238.024 178.808C239.287 177.545 239.998 175.832 240 174.046V96.028C239.998 94.2416 239.287 92.5289 238.024 91.2658C236.761 90.0026 235.048 89.2921 233.262 89.29H154.478C152.691 89.2921 150.979 90.0026 149.716 91.2658C148.452 92.5289 147.742 94.2416 147.74 96.028V115.365H148.533V96.028C148.534 94.4518 149.161 92.9406 150.276 91.826C151.39 90.7115 152.902 90.0845 154.478 90.0827H233.262C234.838 90.0845 236.349 90.7115 237.464 91.826C238.578 92.9406 239.205 94.4518 239.207 96.028V174.046C239.205 175.622 238.578 177.133 237.464 178.248C236.349 179.362 234.838 179.989 233.262 179.991H183.941V180.784Z" fill="#3F3D56"/>
<path d="M177.431 115.233H82.4025C80.6165 115.237 78.9048 115.948 77.6419 117.211C76.3791 118.474 75.668 120.185 75.6645 121.971V216.101C75.6664 217.887 76.3768 219.6 77.6401 220.863C78.9033 222.126 80.616 222.837 82.4025 222.839H177.431C179.218 222.837 180.931 222.126 182.194 220.863C183.457 219.6 184.167 217.887 184.169 216.101V121.971C184.167 120.185 183.457 118.472 182.194 117.209C180.931 115.946 179.218 115.235 177.431 115.233ZM183.377 216.101C183.375 217.677 182.748 219.188 181.633 220.302C180.519 221.417 179.008 222.044 177.431 222.046H82.4025C80.8263 222.044 79.3152 221.417 78.2006 220.302C77.0861 219.188 76.4591 217.677 76.4572 216.101V121.971C76.4596 120.395 77.0868 118.885 78.2012 117.77C79.3156 116.656 80.8264 116.029 82.4025 116.026H177.431C179.008 116.028 180.519 116.655 181.633 117.77C182.748 118.884 183.375 120.395 183.377 121.971V216.101Z" fill="#3F3D56"/>
<path d="M169.948 151.891H89.8849C89.044 151.891 88.2375 151.557 87.6428 150.963C87.0482 150.368 86.7141 149.562 86.7141 148.721C86.7141 147.88 87.0482 147.073 87.6428 146.479C88.2375 145.884 89.044 145.55 89.8849 145.55H169.948C170.789 145.55 171.595 145.884 172.19 146.479C172.784 147.073 173.119 147.88 173.119 148.721C173.119 149.562 172.784 150.368 172.19 150.963C171.595 151.557 170.789 151.891 169.948 151.891Z" fill="#1A5A96"/>
<path d="M147.158 138.416H112.675C111.834 138.416 111.028 138.082 110.433 137.487C109.838 136.892 109.504 136.086 109.504 135.245C109.504 134.404 109.838 133.598 110.433 133.003C111.028 132.408 111.834 132.074 112.675 132.074H147.158C147.999 132.074 148.805 132.408 149.4 133.003C149.994 133.598 150.329 134.404 150.329 135.245C150.329 136.086 149.994 136.892 149.4 137.487C148.805 138.082 147.999 138.416 147.158 138.416Z" fill="#FCBA19"/>
<path d="M124.169 170.918H89.6868C88.8458 170.918 88.0393 170.584 87.4447 169.989C86.8501 169.394 86.516 168.588 86.516 167.747C86.516 166.906 86.8501 166.1 87.4447 165.505C88.0393 164.91 88.8458 164.576 89.6868 164.576H124.169C125.01 164.576 125.817 164.91 126.411 165.505C127.006 166.1 127.34 166.906 127.34 167.747C127.34 168.588 127.006 169.394 126.411 169.989C125.817 170.584 125.01 170.918 124.169 170.918Z" fill="#1A5A96"/>
<path d="M124.169 184.789H89.6868C88.8458 184.789 88.0393 184.455 87.4447 183.86C86.8501 183.266 86.516 182.459 86.516 181.618C86.516 180.777 86.8501 179.971 87.4447 179.376C88.0393 178.781 88.8458 178.447 89.6868 178.447H124.169C125.01 178.447 125.817 178.781 126.411 179.376C127.006 179.971 127.34 180.777 127.34 181.618C127.34 182.459 127.006 183.266 126.411 183.86C125.817 184.455 125.01 184.789 124.169 184.789Z" fill="#1A5A96"/>
<path d="M124.169 198.661H89.6868C88.8458 198.661 88.0393 198.327 87.4447 197.732C86.8501 197.138 86.516 196.331 86.516 195.49C86.516 194.649 86.8501 193.843 87.4447 193.248C88.0393 192.653 88.8458 192.319 89.6868 192.319H124.169C125.01 192.319 125.817 192.653 126.411 193.248C127.006 193.843 127.34 194.649 127.34 195.49C127.34 196.331 127.006 197.138 126.411 197.732C125.817 198.327 125.01 198.661 124.169 198.661Z" fill="#1A5A96"/>
<path d="M167.176 173.635C170.444 173.635 173.093 170.986 173.093 167.718C173.093 164.45 170.444 161.801 167.176 161.801C163.908 161.801 161.259 164.45 161.259 167.718C161.259 170.986 163.908 173.635 167.176 173.635Z" fill="#FCBA19"/>
<path d="M166.589 169.976C166.456 169.976 166.327 169.933 166.22 169.853L166.214 169.848L164.823 168.784C164.693 168.685 164.608 168.537 164.586 168.375C164.565 168.212 164.609 168.048 164.709 167.918C164.808 167.788 164.956 167.703 165.118 167.681C165.281 167.66 165.445 167.704 165.575 167.804L166.476 168.494L168.604 165.717C168.654 165.653 168.715 165.599 168.785 165.558C168.856 165.518 168.933 165.492 169.014 165.481C169.094 165.47 169.176 165.476 169.254 165.497C169.332 165.518 169.406 165.554 169.47 165.603L169.457 165.622L169.471 165.603C169.601 165.703 169.686 165.85 169.707 166.013C169.729 166.175 169.685 166.339 169.585 166.469L167.082 169.734C167.024 169.809 166.949 169.87 166.864 169.912C166.779 169.954 166.685 169.975 166.59 169.975L166.589 169.976Z" fill="white"/>
<path d="M74.826 81.3943C73.007 81.3943 71.2288 80.8549 69.7164 79.8443C68.2039 78.8337 67.0251 77.3973 66.329 75.7167C65.6329 74.0361 65.4508 72.1869 65.8057 70.4028C66.1606 68.6188 67.0365 66.98 68.3228 65.6938C69.609 64.4075 71.2478 63.5316 73.0319 63.1767C74.816 62.8219 76.6652 63.004 78.3457 63.7001C80.0263 64.3962 81.4627 65.575 82.4733 67.0875C83.4839 68.6 84.0233 70.3781 84.0233 72.1972C84.0205 74.6356 83.0506 76.9733 81.3264 78.6975C79.6022 80.4217 77.2644 81.3916 74.826 81.3943ZM74.826 63.7927C73.1638 63.7927 71.5389 64.2857 70.1568 65.2092C68.7747 66.1327 67.6975 67.4453 67.0614 68.981C66.4253 70.5167 66.2589 72.2065 66.5832 73.8368C66.9075 75.4671 67.7079 76.9647 68.8833 78.14C70.0587 79.3154 71.5562 80.1159 73.1865 80.4401C74.8168 80.7644 76.5067 80.598 78.0424 79.9619C79.5781 79.3257 80.8907 78.2485 81.8142 76.8664C82.7377 75.4843 83.2306 73.8594 83.2306 72.1972C83.2281 69.9689 82.3418 67.8327 80.7662 66.2571C79.1905 64.6815 77.0543 63.7952 74.826 63.7927Z" fill="#3F3D56"/>
<path d="M73.9541 75.5548C73.7561 75.5551 73.5634 75.4911 73.405 75.3723L73.3952 75.3649L71.3268 73.7828C71.1334 73.6344 71.0068 73.4153 70.9748 73.1737C70.9429 72.932 71.0083 72.6875 71.1566 72.4941C71.3049 72.3006 71.524 72.174 71.7657 72.1421C72.0074 72.1101 72.2518 72.1755 72.4453 72.3239L73.785 73.3512L76.9507 69.2211C77.0242 69.1253 77.1157 69.045 77.2202 68.9846C77.3246 68.9242 77.44 68.885 77.5596 68.8692C77.6792 68.8534 77.8007 68.8614 77.9173 68.8925C78.0339 68.9237 78.1431 68.9775 78.2389 69.051L78.2195 69.0784L78.2397 69.0512C78.4329 69.1996 78.5593 69.4187 78.5911 69.6602C78.623 69.9018 78.5577 70.1461 78.4096 70.3396L74.686 75.1953C74.5999 75.3072 74.4891 75.3977 74.3623 75.4599C74.2355 75.522 74.0961 75.5541 73.9549 75.5537L73.9541 75.5548Z" fill="#3F3D56"/>
<path d="M167.176 187.507C170.444 187.507 173.093 184.858 173.093 181.59C173.093 178.322 170.444 175.673 167.176 175.673C163.908 175.673 161.259 178.322 161.259 181.59C161.259 184.858 163.908 187.507 167.176 187.507Z" fill="#FCBA19"/>
<path d="M166.589 183.846C166.456 183.846 166.327 183.803 166.22 183.723L166.214 183.718L164.823 182.655C164.759 182.605 164.705 182.544 164.664 182.473C164.623 182.403 164.597 182.326 164.586 182.245C164.576 182.165 164.581 182.083 164.602 182.004C164.623 181.926 164.659 181.853 164.709 181.788C164.758 181.724 164.82 181.67 164.89 181.629C164.96 181.588 165.038 181.562 165.118 181.551C165.199 181.541 165.28 181.546 165.359 181.567C165.437 181.588 165.511 181.624 165.575 181.674L166.476 182.364L168.604 179.588C168.654 179.523 168.715 179.469 168.785 179.429C168.856 179.388 168.933 179.362 169.014 179.351C169.094 179.34 169.176 179.346 169.254 179.367C169.332 179.388 169.406 179.424 169.47 179.473L169.457 179.492L169.471 179.473C169.601 179.573 169.686 179.72 169.707 179.883C169.729 180.045 169.685 180.209 169.585 180.34L167.082 183.604C167.024 183.679 166.949 183.74 166.864 183.782C166.779 183.824 166.685 183.846 166.59 183.845L166.589 183.846Z" fill="white"/>
<path d="M167.176 201.408C170.444 201.408 173.093 198.758 173.093 195.49C173.093 192.222 170.444 189.573 167.176 189.573C163.908 189.573 161.259 192.222 161.259 195.49C161.259 198.758 163.908 201.408 167.176 201.408Z" fill="#FCBA19"/>
<path d="M166.59 197.747C166.456 197.748 166.327 197.705 166.22 197.625L166.214 197.62L164.823 196.556C164.693 196.456 164.608 196.309 164.587 196.147C164.566 195.984 164.61 195.82 164.709 195.69C164.809 195.56 164.956 195.475 165.118 195.453C165.281 195.432 165.445 195.476 165.575 195.575L166.476 196.266L168.604 193.489C168.654 193.425 168.715 193.371 168.785 193.33C168.856 193.289 168.933 193.263 169.014 193.252C169.094 193.242 169.176 193.247 169.254 193.268C169.333 193.289 169.406 193.325 169.47 193.375L169.457 193.393L169.471 193.375C169.601 193.475 169.686 193.622 169.707 193.784C169.729 193.947 169.685 194.111 169.585 194.241L167.082 197.506C167.024 197.581 166.949 197.642 166.864 197.684C166.779 197.725 166.685 197.747 166.59 197.747L166.59 197.747Z" fill="white"/>
<path d="M129.925 107.157C123.683 107.051 120.846 102.314 120.847 97.9591C120.847 93.6037 123.684 88.8682 129.912 88.7627H129.926C136.155 88.8689 138.991 93.605 138.991 97.9604C138.991 102.316 136.154 107.052 129.925 107.157ZM129.919 89.5554C124.231 89.6549 121.64 93.9807 121.639 97.9591C121.639 101.939 124.232 106.267 129.925 106.364C135.605 106.268 138.198 101.94 138.198 97.9604C138.199 93.982 135.607 89.6562 129.919 89.5554Z" fill="#FCBA19"/>
<path d="M185.804 81.3943C183.985 81.3943 182.207 80.8549 180.695 79.8443C179.182 78.8337 178.003 77.3973 177.307 75.7167C176.611 74.0361 176.429 72.1869 176.784 70.4028C177.139 68.6188 178.015 66.98 179.301 65.6938C180.587 64.4075 182.226 63.5316 184.01 63.1767C185.794 62.8219 187.643 63.004 189.324 63.7001C191.005 64.3962 192.441 65.575 193.451 67.0875C194.462 68.6 195.001 70.3781 195.001 72.1972C194.999 74.6356 194.029 76.9733 192.305 78.6975C190.58 80.4217 188.243 81.3916 185.804 81.3943ZM185.804 63.7927C184.142 63.7927 182.517 64.2857 181.135 65.2092C179.753 66.1327 178.676 67.4453 178.04 68.981C177.404 70.5167 177.237 72.2065 177.561 73.8368C177.886 75.4671 178.686 76.9647 179.862 78.14C181.037 79.3154 182.534 80.1159 184.165 80.4401C185.795 80.7644 187.485 80.598 189.021 79.9619C190.556 79.3257 191.869 78.2485 192.792 76.8664C193.716 75.4843 194.209 73.8594 194.209 72.1972C194.206 69.9689 193.32 67.8327 191.744 66.2571C190.169 64.6815 188.032 63.7952 185.804 63.7927Z" fill="#3F3D56"/>
<path d="M188.632 69.852C188.632 70.444 188.452 70.916 188.092 71.268C187.74 71.62 187.304 71.86 186.784 71.988V72.024C187.464 72.112 187.984 72.324 188.344 72.66C188.704 72.996 188.884 73.444 188.884 74.004C188.884 74.5 188.76 74.948 188.512 75.348C188.272 75.74 187.896 76.052 187.384 76.284C186.88 76.508 186.228 76.62 185.428 76.62C184.5 76.62 183.676 76.464 182.956 76.152V74.616C183.324 74.8 183.708 74.94 184.108 75.036C184.508 75.132 184.884 75.18 185.236 75.18C185.884 75.18 186.336 75.068 186.592 74.844C186.856 74.62 186.988 74.304 186.988 73.896C186.988 73.664 186.928 73.464 186.808 73.296C186.688 73.128 186.476 73.004 186.172 72.924C185.876 72.836 185.46 72.792 184.924 72.792H184.276V71.4H184.936C185.464 71.4 185.864 71.352 186.136 71.256C186.416 71.152 186.604 71.016 186.7 70.848C186.804 70.672 186.856 70.472 186.856 70.248C186.856 69.944 186.76 69.708 186.568 69.54C186.384 69.364 186.072 69.276 185.632 69.276C185.224 69.276 184.868 69.348 184.564 69.492C184.26 69.636 184.008 69.772 183.808 69.9L182.968 68.652C183.304 68.412 183.696 68.212 184.144 68.052C184.6 67.892 185.14 67.812 185.764 67.812C186.644 67.812 187.34 67.992 187.852 68.352C188.372 68.704 188.632 69.204 188.632 69.852Z" fill="#3F3D56"/>
<path d="M132.968 102H126.98V100.74L129.128 98.568C129.56 98.12 129.908 97.748 130.172 97.452C130.436 97.148 130.628 96.876 130.748 96.636C130.868 96.388 130.928 96.124 130.928 95.844C130.928 95.5 130.832 95.244 130.64 95.076C130.456 94.908 130.204 94.824 129.884 94.824C129.556 94.824 129.236 94.9 128.924 95.052C128.612 95.204 128.284 95.42 127.94 95.7L126.956 94.536C127.196 94.328 127.456 94.132 127.736 93.948C128.016 93.756 128.336 93.604 128.696 93.492C129.064 93.372 129.504 93.312 130.016 93.312C130.576 93.312 131.056 93.416 131.456 93.624C131.864 93.824 132.176 94.1 132.392 94.452C132.616 94.796 132.728 95.188 132.728 95.628C132.728 96.1 132.632 96.532 132.44 96.924C132.256 97.316 131.984 97.704 131.624 98.088C131.272 98.472 130.844 98.896 130.34 99.36L129.236 100.392V100.476H132.968V102Z" fill="#FCBA19"/>
</svg>
