<svg width="260" height="260" viewBox="0 0 260 260" fill="none" xmlns="http://www.w3.org/2000/svg">
<path opacity="0.05" d="M130 260C180.81 260 222 256.866 222 253C222 249.134 180.81 246 130 246C79.1898 246 38 249.134 38 253C38 256.866 79.1898 260 130 260Z" fill="black"/>
<path d="M130 260C201.797 260 260 201.797 260 130C260 58.203 201.797 0 130 0C58.203 0 0 58.203 0 130C0 201.797 58.203 260 130 260Z" fill="#E0E0E0"/>
<path d="M250 129.985C250 196.268 196.267 250 129.997 250C126.194 250 122.426 249.828 118.724 249.478C59.0573 243.906 12.0708 194.66 10.0712 134.032C10.0237 132.683 10 131.334 10 129.985C10 126.955 10.1127 123.948 10.3382 120.966C14.9484 58.902 66.7648 10 130.003 10C184.59 10 230.657 46.4465 245.212 96.3276C245.467 97.2236 245.722 98.1078 245.965 99.0276C246.855 102.39 247.607 105.81 248.22 109.287C249.405 116.123 250.001 123.048 250 129.985Z" fill="#F8F8F8"/>
<path opacity="0.4" d="M250 128.773C250 196.277 196.253 251 129.964 251C65.0294 251 12.1307 198.483 10 132.894C23.6861 133.293 37.6275 132.834 50.5599 128.295C64.5784 123.382 76.5789 113.979 89.4876 106.539C124.166 86.6263 165.551 81.2658 205.167 85.2061C218.622 86.5417 232.575 89.3216 245.204 94.4343C248.394 105.581 250.009 117.133 250 128.743V128.773Z" fill="#1A5A96"/>
<path opacity="0.4" d="M250 128.39C250 196.106 196.365 251 130.215 251C126.419 251 122.658 250.825 118.962 250.467C99.5388 240.648 83.0802 225.62 71.3388 206.985C59.5974 188.35 53.0127 166.805 52.2856 144.643C65.9432 145.043 79.8554 144.582 92.7607 140.03C106.756 135.101 118.725 125.668 131.607 118.205C165.899 98.4057 206.759 92.9556 245.967 96.7022C246.855 100.137 247.605 103.631 248.217 107.184C249.406 114.187 250.002 121.282 250 128.39Z" fill="#1A5A96"/>
<path d="M250 128.378C250 196.1 196.268 251 130 251C63.7315 251 10 196.1 10 128.378C10 125.282 10.1127 122.21 10.3382 119.162C19.8015 120.344 29.0376 122.97 37.7379 126.953C51.8116 133.41 64.3308 143.323 78.9681 148.301C89.648 151.938 101.004 152.805 112.242 153.151C126.274 153.606 140.603 153.242 153.875 148.567C167.89 143.638 179.881 134.204 192.792 126.771C209.956 116.877 228.783 110.565 248.214 107.194C249.403 114.19 250.001 121.278 250 128.378Z" fill="#4585C1"/>
<path opacity="0.7" d="M52.223 165.343C62.0181 163.498 62.0612 148.935 62.0612 148.935C61.6306 151.016 60.6274 151.218 55.5253 152.887C50.4233 154.556 47.3448 159.936 47.3448 159.936C32.0988 142.206 18.9927 161.513 18.9927 161.513C21.1806 164.867 24.385 167.399 28.1162 168.72C27.5134 170.222 26.8762 172.317 27.6253 173.086C28.4864 173.964 30.8416 171.263 32.1074 169.642C32.4863 169.686 32.8652 169.726 33.2441 169.752C33.9717 171.241 35.7757 175.154 35.7714 177.478C35.7714 177.478 39.9306 177.153 39.4053 169.418C42.0422 168.979 44.6134 168.199 47.0563 167.095C47.0563 167.095 46.6258 179.16 50.0702 179.792C53.5147 180.425 56.8902 184.702 56.8902 184.702C62.0052 174.526 52.223 165.343 52.223 165.343Z" fill="#2E8540"/>
<path opacity="0.7" d="M159.295 195.653C169.091 193.809 169.134 179.245 169.134 179.245C168.703 181.327 167.7 181.529 162.598 183.198C157.496 184.867 154.417 190.247 154.417 190.247C139.171 172.517 126.065 191.824 126.065 191.824C128.253 195.178 131.458 197.709 135.189 199.031C134.586 200.533 133.949 202.628 134.698 203.396C135.559 204.275 137.914 201.574 139.18 199.953C139.559 199.997 139.938 200.036 140.317 200.063C141.044 201.552 142.848 205.465 142.844 207.788C142.844 207.788 147.003 207.463 146.478 199.729C149.115 199.29 151.686 198.509 154.129 197.406C154.129 197.406 153.698 209.47 157.143 210.103C160.587 210.735 163.963 215.013 163.963 215.013C169.078 204.837 159.295 195.653 159.295 195.653Z" fill="#2E8540"/>
<path opacity="0.6" d="M187.506 171.017C177.679 172.679 172.724 159.009 172.724 159.009C173.831 160.816 174.842 160.658 180.199 160.458C185.557 160.257 190.265 164.246 190.265 164.246C198.608 142.3 217.44 155.9 217.44 155.9C216.516 159.81 214.359 163.3 211.299 165.835C212.372 167.037 213.678 168.785 213.233 169.767C212.72 170.891 209.596 169.169 207.859 168.085C207.518 168.258 207.175 168.426 206.828 168.582C206.647 170.233 206.272 174.536 207.06 176.718C207.06 176.718 203.042 177.854 200.926 170.404C198.3 170.906 195.62 171.063 192.952 170.873C192.952 170.873 197.428 182.061 194.405 183.849C191.382 185.637 189.653 190.827 189.653 190.827C181.413 183.038 187.506 171.017 187.506 171.017Z" fill="#D8292F"/>
<path opacity="0.7" d="M111.919 226.693C118.857 225.38 118.888 215.013 118.888 215.013C118.583 216.495 117.872 216.638 114.258 217.826C110.644 219.015 108.464 222.844 108.464 222.844C97.6646 210.223 88.3811 223.967 88.3811 223.967C89.9309 226.355 92.2007 228.157 94.8436 229.097C94.4166 230.167 93.9652 231.658 94.4959 232.205C95.1058 232.83 96.7741 230.908 97.6707 229.754C97.9391 229.785 98.2075 229.813 98.4758 229.832C98.9913 230.892 100.269 233.678 100.266 235.331C100.266 235.331 103.212 235.1 102.84 229.594C104.708 229.282 106.529 228.726 108.26 227.941C108.26 227.941 107.955 236.529 110.394 236.979C112.834 237.429 115.225 240.474 115.225 240.474C118.848 233.23 111.919 226.693 111.919 226.693Z" fill="#2E8540"/>
<path opacity="0.7" d="M131.722 135.905C126.361 131.252 131.449 122.258 131.449 122.258C130.982 123.696 131.527 124.18 134.07 127.041C136.614 129.901 136.613 134.323 136.613 134.323C152.192 128.864 153.451 145.471 153.451 145.471C150.931 146.754 148.076 147.164 145.324 146.64C145.166 147.782 144.821 149.302 144.091 149.507C143.255 149.74 142.759 147.229 142.551 145.776C142.303 145.667 142.057 145.555 141.815 145.435C140.846 146.092 138.365 147.857 137.552 149.291C137.552 149.291 135.115 147.598 138.153 143.018C136.69 141.801 135.387 140.397 134.276 138.84C134.276 138.84 130.303 146.432 127.968 145.585C125.633 144.739 122.06 146.164 122.06 146.164C122.496 138.055 131.722 135.905 131.722 135.905Z" fill="#2E8540"/>
<path opacity="0.7" d="M232.893 124.453C242.723 126.434 248.093 113.008 248.093 113.008C246.944 114.754 245.926 114.575 240.538 114.182C235.151 113.789 230.314 117.595 230.314 117.595C222.552 95.5176 203.23 108.429 203.23 108.429C204.048 112.348 206.119 115.89 209.124 118.512C208.01 119.673 206.65 121.367 207.07 122.353C207.555 123.51 210.741 121.882 212.518 120.86C212.856 121.048 213.198 121.223 213.541 121.389C213.675 123.039 213.931 127.329 213.077 129.472C213.077 129.472 217.086 130.734 219.422 123.396C222.034 123.981 224.71 124.228 227.384 124.13C227.384 124.13 222.556 135.099 225.564 136.989C228.572 138.879 230.141 144.082 230.141 144.082C238.657 136.596 232.893 124.453 232.893 124.453Z" fill="#FE7D1E"/>
<path opacity="0.7" d="M197.158 209.586C202.742 207.66 201.594 199.238 201.594 199.238C201.514 200.467 200.943 200.68 198.083 202.088C195.223 203.495 193.859 206.871 193.859 206.871C183.512 197.971 177.398 210.294 177.398 210.294C178.95 212.041 181.03 213.222 183.321 213.658C183.09 214.58 182.886 215.846 183.386 216.222C183.968 216.665 185.121 214.888 185.731 213.839C185.958 213.833 186.183 213.82 186.405 213.802C186.951 214.6 188.323 216.703 188.508 218.047C188.508 218.047 190.917 217.492 189.985 213.067C191.486 212.585 192.921 211.912 194.256 211.065C194.256 211.065 194.969 218.078 197.049 218.14C199.13 218.203 201.435 220.379 201.435 220.379C203.611 214.035 197.158 209.586 197.158 209.586Z" fill="#FE7D1E"/>
<path opacity="0.7" d="M98.0787 163.708C90.2857 158.431 95.4951 145.953 95.4951 145.953C95.1154 147.878 95.9057 148.442 99.7244 151.793C103.543 155.143 104.258 160.902 104.258 160.902C123.796 151.505 128.148 172.991 128.148 172.991C125.05 175.034 121.37 175.988 117.672 175.708C117.651 177.222 117.446 179.254 116.524 179.625C115.448 180.064 114.404 176.853 113.895 174.987C113.549 174.884 113.209 174.77 112.875 174.65C111.709 175.651 108.741 178.317 107.907 180.307C107.907 180.307 104.433 178.454 107.675 172.037C105.567 170.673 103.637 169.043 101.932 167.186C101.932 167.186 97.9679 177.675 94.7458 176.909C91.5237 176.143 87.0914 178.532 87.0914 178.532C86.344 167.874 98.0787 163.708 98.0787 163.708Z" fill="#FE7D1E"/>
<path opacity="0.6" d="M87.5557 129.282C92.9392 125.648 89.2981 116.992 89.2981 116.992C89.5662 118.326 89.0203 118.715 86.3844 121.025C83.7484 123.335 83.2685 127.321 83.2685 127.321C69.7117 120.76 66.7542 135.629 66.7542 135.629C68.9056 137.053 71.4566 137.724 74.0174 137.54C74.036 138.589 74.1834 139.997 74.8227 140.256C75.5689 140.563 76.2836 138.342 76.6309 137.05C76.8703 136.98 77.1057 136.902 77.3372 136.82C78.147 137.517 80.2101 139.371 80.7928 140.751C80.7928 140.751 83.1941 139.478 80.9312 135.024C82.3881 134.085 83.7205 132.962 84.8961 131.68C84.8961 131.68 87.6695 138.956 89.8991 138.434C92.1287 137.912 95.2048 139.579 95.2048 139.579C95.6942 132.199 87.5557 129.282 87.5557 129.282Z" fill="#D8292F"/>
<path opacity="0.6" d="M65.9364 200.82C60.553 197.186 64.1941 188.53 64.1941 188.53C63.926 189.864 64.4719 190.253 67.1078 192.563C69.7438 194.873 70.2237 198.859 70.2237 198.859C83.7805 192.298 86.738 207.168 86.738 207.168C84.5866 208.591 82.0356 209.262 79.4748 209.078C79.4562 210.127 79.3088 211.535 78.6695 211.794C77.9233 212.101 77.2086 209.88 76.8612 208.589C76.6219 208.519 76.3865 208.441 76.155 208.358C75.3452 209.055 73.2821 210.909 72.6994 212.29C72.6994 212.29 70.2981 211.016 72.561 206.562C71.1041 205.623 69.7717 204.5 68.5961 203.218C68.5961 203.218 65.8227 210.494 63.5931 209.972C61.3634 209.45 58.2873 211.117 58.2873 211.117C57.7979 203.738 65.9364 200.82 65.9364 200.82Z" fill="#D8292F"/>
<path opacity="0.6" d="M172.552 123.351C168.137 120.371 171.123 113.273 171.123 113.273C170.903 114.367 171.351 114.685 173.513 116.58C175.674 118.474 176.068 121.743 176.068 121.743C187.185 116.363 189.61 128.556 189.61 128.556C187.846 129.724 185.754 130.274 183.654 130.123C183.639 130.983 183.518 132.138 182.994 132.35C182.382 132.602 181.796 130.78 181.511 129.722C181.315 129.664 181.122 129.6 180.932 129.533C180.268 130.104 178.576 131.625 178.098 132.757C178.098 132.757 176.129 131.712 177.984 128.06C176.79 127.29 175.697 126.369 174.733 125.318C174.733 125.318 172.459 131.284 170.63 130.856C168.802 130.428 166.279 131.795 166.279 131.795C165.878 125.744 172.552 123.351 172.552 123.351Z" fill="#D8292F"/>
</svg>
