<svg width="17" height="14" viewBox="0 0 17 14" fill="none" xmlns="http://www.w3.org/2000/svg">
<path d="M8.53316 7.88283L3.24465 13.1713C2.87912 13.5369 2.28805 13.5369 1.92641 13.1713L1.04758 12.2925C0.682055 11.927 0.682055 11.3359 1.04758 10.9743L4.79621 7.22566L1.04758 3.47704C0.682055 3.11151 0.682055 2.52044 1.04758 2.1588L1.92252 1.27219C2.28805 0.906665 2.87912 0.906665 3.24076 1.27219L8.52927 6.5607C8.89869 6.92623 8.89869 7.5173 8.53316 7.88283ZM15.9993 6.5607L10.7108 1.27219C10.3453 0.906665 9.75418 0.906665 9.39254 1.27219L8.51372 2.15102C8.14819 2.51655 8.14819 3.10762 8.51372 3.46926L12.2623 7.21788L8.51372 10.9665C8.14819 11.332 8.14819 11.9231 8.51372 12.2847L9.39254 13.1636C9.75807 13.5291 10.3491 13.5291 10.7108 13.1636L15.9993 7.87505C16.3648 7.5173 16.3648 6.92623 15.9993 6.5607Z" fill="#1A5A96"/>
</svg>
