<svg width="260" height="260" viewBox="0 0 260 260" fill="none" xmlns="http://www.w3.org/2000/svg">
<path opacity="0.1" d="M132.604 260C167.954 260 196.611 256.974 196.611 253.241C196.611 249.509 167.954 246.482 132.604 246.482C97.254 246.482 68.5972 249.509 68.5972 253.241C68.5972 256.974 97.254 260 132.604 260Z" fill="black"/>
<path d="M132.604 254.469C202.963 254.469 260 197.504 260 127.235C260 56.9649 202.963 0 132.604 0C62.2451 0 5.20795 56.9649 5.20795 127.235C5.20795 197.504 62.2451 254.469 132.604 254.469Z" fill="#F8F8F8"/>
<path opacity="0.1" d="M238.462 127.23C238.462 185.62 191.063 232.954 132.604 232.954C129.249 232.954 125.926 232.802 122.66 232.494C70.0263 227.585 28.5781 184.203 26.8143 130.795C26.7724 129.607 26.7515 128.418 26.7515 127.23C26.7515 124.561 26.8509 121.912 27.0498 119.284C31.1166 64.6111 76.8253 21.5322 132.609 21.5322C180.762 21.5322 221.399 53.6388 234.238 97.5802C234.463 98.3696 234.689 99.1485 234.903 99.9587C235.688 102.921 236.351 105.934 236.892 108.997C237.938 115.018 238.463 121.119 238.462 127.23Z" fill="black"/>
<path opacity="0.4" d="M238.462 127.229C238.462 185.619 191.063 232.953 132.604 232.953C75.3384 232.953 28.6876 187.527 26.8086 130.794C38.8782 131.139 51.1729 130.742 62.5779 126.816C74.9406 122.567 85.5238 114.433 96.9078 107.998C127.49 90.7736 163.987 86.1369 198.924 89.5452C210.79 90.7004 223.095 93.105 234.233 97.5274C237.046 107.169 238.469 117.161 238.462 127.203V127.229Z" fill="#1A5A96"/>
<path opacity="0.4" d="M238.462 127.229C238.462 185.619 191.063 232.953 132.604 232.953C129.249 232.953 125.925 232.801 122.659 232.493C105.494 224.026 90.9491 211.068 80.5728 195C70.1965 178.931 64.3774 160.353 63.7349 141.244C75.8045 141.589 88.0992 141.191 99.5041 137.266C111.872 133.016 122.45 124.882 133.834 118.447C164.139 101.374 200.249 96.675 234.898 99.9055C235.683 102.868 236.346 105.88 236.887 108.944C237.937 114.982 238.464 121.1 238.462 127.229Z" fill="#1A5A96"/>
<path d="M238.462 127.229C238.462 185.619 191.063 232.953 132.604 232.953C74.1454 232.953 26.7461 185.619 26.7461 127.229C26.7461 124.56 26.8455 121.911 27.0444 119.284C35.3925 120.302 43.5401 122.567 51.2151 126.001C63.6302 131.568 74.674 140.115 87.5863 144.407C97.0076 147.543 107.025 148.29 116.939 148.588C129.317 148.98 141.957 148.667 153.666 144.637C166.029 140.387 176.607 132.253 187.996 125.844C203.138 117.313 219.745 111.871 236.887 108.965C237.936 114.997 238.463 121.107 238.462 127.229Z" fill="#1A5A96"/>
<path d="M1.36705 51.0855L1.31125 51.0468C1.27095 51.0188 1.21557 51.0287 1.18756 51.069L0.0508886 52.7021C0.0228781 52.7424 0.032839 52.7977 0.0731349 52.8256L0.128932 52.8644C0.169228 52.8924 0.224598 52.8824 0.252608 52.8422L1.38928 51.209C1.41729 51.1688 1.40734 51.1135 1.36705 51.0855Z" fill="#464353"/>
<g opacity="0.75" clip-path="url(#clip0_295_3705)">
<path d="M187.162 163.67C174.636 153.014 177.153 142.441 182.769 128.747C192.501 105.018 176.345 77.7849 152.861 70.7409C127.507 63.1354 99.4516 75.1137 90.0145 100.413C87.6353 106.816 86.614 113.643 87.0154 120.461C87.4884 128.514 91.0324 134.9 93.5907 142.351C98.2853 156.024 85.9209 167.632 75.3956 174.403C62.6201 182.636 65.4824 185.268 73.0952 185.814C79.4761 186.272 85.2353 184.574 90.909 181.713C93.4201 180.446 102.014 176.552 103.227 173.919C99.9015 181.168 93.1384 193.738 97.3688 201.753C102.582 211.629 115.687 193.092 118.306 189.264C120.651 185.837 130.033 167.107 135.673 176.472C140.822 185.021 138.02 197.296 145.427 204.992C154.395 214.315 159.39 200 159.46 192.937C159.505 188.464 157.795 166.808 167.621 176.597C173.468 182.425 182.061 196.001 191.794 194.867C202.366 193.636 185.755 176.339 184.08 173.415C185.552 174.581 198.727 182.718 198.769 176.01C198.799 170.888 190.557 166.56 187.162 163.67Z" fill="#FCBA19"/>
</g>
<defs>
<clipPath id="clip0_295_3705">
<rect width="139.748" height="139.571" fill="white" transform="translate(62.8081 68.4785)"/>
</clipPath>
</defs>
</svg>
