<svg width="260" height="260" viewBox="0 0 260 260" fill="none" xmlns="http://www.w3.org/2000/svg">
<path opacity="0.1" d="M132.604 260C167.954 260 196.611 256.974 196.611 253.241C196.611 249.509 167.954 246.482 132.604 246.482C97.2544 246.482 68.5975 249.509 68.5975 253.241C68.5975 256.974 97.2544 260 132.604 260Z" fill="black"/>
<path d="M132.605 254.47C202.964 254.47 260.001 197.505 260.001 127.235C260.001 56.9649 202.964 0 132.605 0C62.2458 0 5.20868 56.9649 5.20868 127.235C5.20868 197.505 62.2458 254.47 132.605 254.47Z" fill="#F8F8F8"/>
<path opacity="0.1" d="M238.462 127.23C238.462 185.62 191.063 232.954 132.604 232.954C129.249 232.954 125.925 232.803 122.659 232.494C70.0261 227.586 28.578 184.203 26.8141 130.795C26.7722 129.607 26.7513 128.418 26.7513 127.23C26.7513 124.561 26.8507 121.912 27.0496 119.284C31.1164 64.6112 76.8251 21.5322 132.609 21.5322C180.762 21.5322 221.399 53.6389 234.238 97.5804C234.463 98.3697 234.688 99.1486 234.903 99.9588C235.688 102.921 236.351 105.934 236.892 108.997C237.937 115.019 238.463 121.119 238.462 127.23Z" fill="black"/>
<path opacity="0.4" d="M238.462 127.228C238.462 185.618 191.063 232.953 132.604 232.953C75.3389 232.953 28.6881 187.526 26.8091 130.794C38.8787 131.139 51.1734 130.741 62.5784 126.816C74.9411 122.566 85.5243 114.432 96.9083 107.997C127.491 90.7726 163.988 86.1359 198.925 89.5442C210.79 90.6995 223.095 93.1041 234.233 97.5264C237.046 107.168 238.47 117.16 238.462 127.202V127.228Z" fill="#1A5A96"/>
<path opacity="0.4" d="M238.462 127.229C238.462 185.619 191.063 232.953 132.604 232.953C129.249 232.953 125.926 232.802 122.66 232.493C105.495 224.026 90.9495 211.069 80.5732 195C70.1969 178.931 64.3777 160.353 63.7352 141.244C75.8049 141.589 88.0996 141.191 99.5045 137.266C111.872 133.016 122.45 124.882 133.834 118.447C164.139 101.374 200.249 96.675 234.898 99.9055C235.683 102.868 236.346 105.88 236.887 108.944C237.937 114.982 238.464 121.1 238.462 127.229Z" fill="#1A5A96"/>
<path d="M238.462 127.23C238.462 185.62 191.063 232.954 132.604 232.954C74.1456 232.954 26.7463 185.62 26.7463 127.23C26.7463 124.561 26.8457 121.912 27.0446 119.285C35.3927 120.303 43.5403 122.568 51.2153 126.002C63.6304 131.569 74.6742 140.116 87.5865 144.408C97.0077 147.544 107.026 148.292 116.939 148.589C129.317 148.982 141.958 148.668 153.666 144.638C166.029 140.388 176.607 132.254 187.996 125.845C203.138 117.314 219.745 111.872 236.887 108.966C237.936 114.998 238.463 121.108 238.462 127.23Z" fill="#1A5A96"/>
<path opacity="0.6" d="M66.945 161.14C75.5158 159.549 75.5535 146.991 75.5535 146.991C75.1767 148.786 74.2989 148.96 69.8346 150.4C65.3703 151.839 62.6766 156.478 62.6766 156.478C49.3364 141.189 37.8685 157.837 37.8685 157.837C39.783 160.73 42.5868 162.912 45.8516 164.052C45.3241 165.347 44.7666 167.153 45.4221 167.816C46.1756 168.574 48.2363 166.244 49.3439 164.847C49.6755 164.885 50.007 164.919 50.3385 164.942C50.9752 166.226 52.5537 169.6 52.5499 171.603C52.5499 171.603 56.1892 171.323 55.7296 164.654C58.0369 164.275 60.2866 163.602 62.4242 162.651C62.4242 162.651 62.0475 173.054 65.0614 173.599C68.0753 174.144 71.0289 177.833 71.0289 177.833C75.5045 169.058 66.945 161.14 66.945 161.14Z" fill="#2E8540"/>
<path opacity="0.6" d="M160.634 187.276C169.205 185.686 169.242 173.128 169.242 173.128C168.865 174.923 167.988 175.097 163.523 176.536C159.059 177.975 156.365 182.614 156.365 182.614C143.025 167.326 131.557 183.974 131.557 183.974C133.472 186.866 136.276 189.049 139.54 190.189C139.013 191.484 138.455 193.29 139.111 193.953C139.864 194.71 141.925 192.381 143.033 190.984C143.364 191.022 143.696 191.056 144.027 191.078C144.664 192.362 146.242 195.737 146.239 197.74C146.239 197.74 149.878 197.46 149.418 190.791C151.726 190.412 153.975 189.739 156.113 188.787C156.113 188.787 155.736 199.19 158.75 199.736C161.764 200.281 164.718 203.97 164.718 203.97C169.193 195.195 160.634 187.276 160.634 187.276Z" fill="#2E8540"/>
<path opacity="0.4" d="M185.317 166.033C176.719 167.466 172.383 155.678 172.383 155.678C173.352 157.236 174.236 157.1 178.924 156.928C183.612 156.755 187.732 160.194 187.732 160.194C195.032 141.271 211.51 152.998 211.51 152.998C210.701 156.369 208.814 159.378 206.136 161.564C207.075 162.601 208.218 164.108 207.829 164.955C207.38 165.924 204.646 164.439 203.127 163.505C202.828 163.653 202.528 163.799 202.225 163.933C202.066 165.357 201.738 169.067 202.428 170.948C202.428 170.948 198.912 171.928 197.06 165.504C194.762 165.937 192.418 166.073 190.083 165.909C190.083 165.909 194 175.555 191.354 177.097C188.709 178.639 187.197 183.114 187.197 183.114C179.986 176.398 185.317 166.033 185.317 166.033Z" fill="#D8292F"/>
<path opacity="0.6" d="M119.179 214.04C125.25 212.908 125.277 203.969 125.277 203.969C125.01 205.247 124.388 205.371 121.226 206.395C118.064 207.419 116.156 210.722 116.156 210.722C106.706 199.839 98.5834 211.69 98.5834 211.69C99.9395 213.749 101.926 215.302 104.238 216.114C103.864 217.036 103.47 218.321 103.934 218.793C104.468 219.332 105.927 217.674 106.712 216.68C106.947 216.707 107.181 216.731 107.416 216.747C107.867 217.661 108.985 220.063 108.983 221.489C108.983 221.489 111.561 221.29 111.235 216.542C112.869 216.273 114.463 215.794 115.977 215.116C115.977 215.116 115.71 222.522 117.845 222.91C119.98 223.298 122.072 225.924 122.072 225.924C125.242 219.678 119.179 214.04 119.179 214.04Z" fill="#2E8540"/>
<path opacity="0.6" d="M136.507 135.756C131.816 131.744 136.268 123.989 136.268 123.989C135.86 125.228 136.336 125.646 138.562 128.113C140.787 130.579 140.786 134.392 140.786 134.392C154.418 129.685 155.52 144.005 155.52 144.005C153.315 145.111 150.817 145.465 148.408 145.012C148.27 145.997 147.968 147.308 147.33 147.485C146.598 147.685 146.164 145.521 145.982 144.267C145.766 144.173 145.55 144.077 145.339 143.974C144.491 144.54 142.32 146.062 141.608 147.298C141.608 147.298 139.475 145.838 142.134 141.89C140.854 140.84 139.713 139.629 138.741 138.286C138.741 138.286 135.265 144.833 133.222 144.103C131.179 143.373 128.052 144.603 128.052 144.603C128.434 137.61 136.507 135.756 136.507 135.756Z" fill="#2E8540"/>
<path opacity="0.6" d="M225.031 125.881C233.632 127.59 238.331 116.013 238.331 116.013C237.326 117.518 236.435 117.364 231.721 117.025C227.007 116.687 222.775 119.969 222.775 119.969C215.983 100.931 199.076 112.065 199.076 112.065C199.792 115.444 201.604 118.498 204.234 120.759C203.259 121.76 202.068 123.22 202.436 124.071C202.861 125.069 205.648 123.665 207.203 122.784C207.499 122.946 207.799 123.096 208.098 123.239C208.216 124.662 208.44 128.362 207.692 130.21C207.692 130.21 211.2 131.298 213.245 124.971C215.53 125.475 217.871 125.687 220.211 125.603C220.211 125.603 215.986 135.061 218.618 136.691C221.25 138.321 222.623 142.807 222.623 142.807C230.075 136.352 225.031 125.881 225.031 125.881Z" fill="#FE7D1E"/>
<path opacity="0.6" d="M193.763 199.29C198.65 197.63 197.645 190.367 197.645 190.367C197.575 191.427 197.075 191.611 194.573 192.824C192.07 194.038 190.876 196.949 190.876 196.949C181.823 189.275 176.474 199.901 176.474 199.901C177.831 201.407 179.651 202.426 181.656 202.801C181.453 203.596 181.275 204.688 181.712 205.012C182.222 205.394 183.231 203.861 183.765 202.957C183.963 202.952 184.16 202.941 184.355 202.925C184.832 203.613 186.033 205.427 186.195 206.586C186.195 206.586 188.303 206.107 187.487 202.292C188.8 201.876 190.056 201.296 191.224 200.565C191.224 200.565 191.848 206.612 193.668 206.666C195.488 206.721 197.506 208.596 197.506 208.596C199.409 203.127 193.763 199.29 193.763 199.29Z" fill="#FE7D1E"/>
<path opacity="0.6" d="M107.069 159.73C100.25 155.18 104.808 144.421 104.808 144.421C104.476 146.081 105.168 146.567 108.509 149.456C111.85 152.345 112.476 157.311 112.476 157.311C129.572 149.208 133.38 167.735 133.38 167.735C130.669 169.497 127.449 170.32 124.213 170.078C124.195 171.384 124.015 173.136 123.209 173.455C122.267 173.834 121.354 171.065 120.909 169.456C120.606 169.368 120.308 169.269 120.015 169.166C118.996 170.029 116.398 172.328 115.669 174.043C115.669 174.043 112.629 172.446 115.466 166.912C113.621 165.736 111.932 164.331 110.441 162.73C110.441 162.73 106.972 171.774 104.153 171.113C101.333 170.453 97.4552 172.513 97.4552 172.513C96.8012 163.323 107.069 159.73 107.069 159.73Z" fill="#FE7D1E"/>
<path opacity="0.4" d="M97.8612 130.045C102.572 126.912 99.3858 119.448 99.3858 119.448C99.6204 120.598 99.1428 120.934 96.8363 122.926C94.5298 124.918 94.1099 128.355 94.1099 128.355C82.2477 122.697 79.6599 135.519 79.6599 135.519C81.5423 136.746 83.7745 137.325 86.0152 137.166C86.0315 138.071 86.1605 139.284 86.7199 139.508C87.3728 139.773 87.9981 137.858 88.302 136.744C88.5115 136.684 88.7175 136.616 88.92 136.546C89.6286 137.146 91.4338 138.745 91.9437 139.935C91.9437 139.935 94.0448 138.837 92.0648 134.997C93.3396 134.187 94.5054 133.218 95.5341 132.113C95.5341 132.113 97.9608 138.387 99.9117 137.937C101.863 137.487 104.554 138.924 104.554 138.924C104.982 132.561 97.8612 130.045 97.8612 130.045Z" fill="#D8292F"/>
<path opacity="0.4" d="M78.9445 191.731C74.234 188.598 77.42 181.134 77.42 181.134C77.1854 182.284 77.663 182.619 79.9695 184.611C82.276 186.603 82.6959 190.04 82.6959 190.04C94.5581 184.383 97.1459 197.204 97.1459 197.204C95.2635 198.432 93.0313 199.01 90.7906 198.852C90.7743 199.756 90.6453 200.97 90.0859 201.193C89.433 201.459 88.8077 199.543 88.5037 198.43C88.2943 198.369 88.0883 198.302 87.8858 198.231C87.1772 198.832 85.372 200.431 84.8621 201.621C84.8621 201.621 82.761 200.523 84.741 196.682C83.4662 195.873 82.3004 194.904 81.2717 193.799C81.2717 193.799 78.845 200.072 76.8941 199.623C74.9432 199.173 72.2516 200.61 72.2516 200.61C71.8234 194.247 78.9445 191.731 78.9445 191.731Z" fill="#D8292F"/>
<path opacity="0.4" d="M172.233 124.932C168.37 122.362 170.983 116.242 170.983 116.242C170.79 117.185 171.182 117.459 173.073 119.093C174.965 120.727 175.309 123.545 175.309 123.545C185.037 118.906 187.159 129.42 187.159 129.42C185.615 130.427 183.785 130.901 181.947 130.771C181.934 131.513 181.828 132.508 181.369 132.691C180.834 132.909 180.321 131.338 180.072 130.425C179.9 130.375 179.731 130.32 179.565 130.262C178.984 130.755 177.504 132.066 177.086 133.042C177.086 133.042 175.363 132.141 176.986 128.992C175.941 128.328 174.985 127.534 174.141 126.628C174.141 126.628 172.151 131.772 170.552 131.403C168.952 131.034 166.744 132.213 166.744 132.213C166.393 126.995 172.233 124.932 172.233 124.932Z" fill="#D8292F"/>
<path d="M1.36698 51.0855L1.31119 51.0468C1.27089 51.0188 1.21551 51.0287 1.1875 51.069L0.0508274 52.7021C0.0228169 52.7424 0.0327779 52.7977 0.0730738 52.8256L0.128871 52.8644C0.169166 52.8924 0.224537 52.8824 0.252547 52.8422L1.38922 51.209C1.41723 51.1688 1.40728 51.1135 1.36698 51.0855Z" fill="#464353"/>
</svg>
