<svg width="260" height="192" viewBox="0 0 260 192" fill="none" xmlns="http://www.w3.org/2000/svg">
<path d="M26.68 183.284C25.7339 183.343 25.211 182.168 25.9268 181.483L25.998 181.2C25.9886 181.178 25.9792 181.155 25.9697 181.132C25.0129 178.852 21.7703 178.868 20.8216 181.152C19.9796 183.178 18.9076 185.209 18.6437 187.352C18.5254 188.298 18.5786 189.262 18.7886 190.19C16.8157 185.883 15.7775 181.179 15.7775 176.449C15.7775 175.26 15.8426 174.072 15.9757 172.886C16.0851 171.917 16.236 170.953 16.4312 169.998C17.4871 164.836 19.7736 159.92 23.0716 155.813C24.6571 154.947 25.9792 153.593 26.7779 151.97C27.0648 151.385 27.2896 150.755 27.3961 150.113C27.2156 150.137 26.7157 147.391 26.8518 147.222C26.6004 146.841 26.1503 146.651 25.8757 146.279C24.5099 144.428 22.6282 144.751 21.6459 147.266C19.5474 148.325 19.5271 150.081 20.8147 151.769C21.6339 152.843 21.7465 154.297 22.4653 155.447C22.3913 155.541 22.3144 155.633 22.2405 155.728C20.8844 157.466 19.7116 159.334 18.7229 161.297C19.0023 159.116 18.5897 156.488 17.8864 154.793C17.0858 152.863 15.5852 151.237 14.2638 149.568C12.6765 147.564 9.42164 148.439 9.14199 150.98C9.13929 151.004 9.13665 151.029 9.13407 151.054C9.33035 151.164 9.52264 151.282 9.71047 151.406C10.7819 152.114 10.4116 153.774 9.14211 153.97L9.11337 153.974C9.18436 154.681 9.30563 155.382 9.48309 156.07C7.78783 162.623 11.4478 165.01 16.6737 165.117C16.7891 165.176 16.9015 165.235 17.0168 165.291C16.4874 166.781 16.0644 168.31 15.7509 169.859C15.4699 171.228 15.2746 172.611 15.1652 174.001C15.0291 175.754 15.041 177.516 15.1889 179.266L15.18 179.204C14.8044 177.277 13.7572 175.476 12.2369 174.228C9.972 172.369 6.77215 171.684 4.32875 170.189C3.15256 169.47 1.64537 170.4 1.85065 171.763L1.86064 171.828C2.22445 171.976 2.57939 172.147 2.92251 172.339C3.11879 172.45 3.31108 172.568 3.49891 172.692C4.5703 173.4 4.20003 175.06 2.93056 175.256L2.90179 175.26C2.88109 175.263 2.86333 175.266 2.84266 175.269C3.46677 176.75 4.33637 178.125 5.42487 179.31C6.48487 185.031 11.0376 185.573 15.9076 183.908H15.9106C16.443 186.225 17.2209 188.49 18.2207 190.648H26.4732C26.5028 190.557 26.5294 190.462 26.556 190.37C25.7929 190.418 25.0238 190.373 24.2725 190.234C24.8848 189.483 25.4971 188.727 26.1094 187.976C26.1242 187.961 26.136 187.946 26.1478 187.931C26.4584 187.547 26.7719 187.166 27.0825 186.781L27.0827 186.781C27.1021 185.601 26.9604 184.425 26.68 183.284Z" fill="#1A5A96"/>
<path d="M24.0252 187.099C23.5134 186.975 23.4318 186.258 23.9256 186.007L24.0106 185.867C24.0094 185.853 24.0081 185.839 24.0069 185.826C23.8793 184.443 22.1566 183.919 21.2729 184.99C20.4885 185.941 19.5815 186.857 19.0844 187.965C18.864 188.454 18.7316 188.981 18.6883 189.515C18.3596 186.875 18.5926 184.176 19.3809 181.634C19.5789 180.995 19.8115 180.367 20.0796 179.751C20.2993 179.248 20.5399 178.755 20.8026 178.274C22.2228 175.672 24.255 173.405 26.6887 171.74C27.674 171.535 28.601 171.024 29.2951 170.283C29.5448 170.015 29.769 169.714 29.9324 169.386C29.8328 169.369 30.0252 167.811 30.1255 167.743C30.0557 167.496 29.8485 167.321 29.7649 167.076C29.3488 165.856 28.2968 165.721 27.3566 166.911C26.0671 167.136 25.7638 168.076 26.1655 169.195C26.421 169.907 26.2385 170.707 26.4281 171.443C26.3731 171.482 26.3171 171.518 26.2621 171.557C25.2531 172.269 24.3196 173.081 23.468 173.973C23.9798 172.847 24.1989 171.366 24.1082 170.34C24.0052 169.171 23.4801 168.05 23.0572 166.936C22.5492 165.598 20.6769 165.533 20.1051 166.853C20.0996 166.866 20.0941 166.879 20.0886 166.892C20.1743 166.983 20.2567 167.078 20.3357 167.176C20.786 167.733 20.3129 168.564 19.6069 168.461L19.5909 168.458C19.5108 168.85 19.4584 169.246 19.4378 169.646C17.4466 172.89 18.9903 174.774 21.7446 175.69C21.7959 175.74 21.8457 175.791 21.8975 175.84C21.3684 176.554 20.8893 177.306 20.4648 178.087C20.0877 178.777 19.7536 179.488 19.464 180.217C19.0997 181.137 18.8123 182.086 18.5992 183.051L18.6048 183.017C18.7267 181.919 18.4713 180.779 17.8727 179.859C16.9812 178.487 15.3979 177.593 14.3509 176.388C13.8469 175.808 12.8925 176.061 12.7742 176.827L12.7686 176.864C12.937 177.003 13.0967 177.153 13.2467 177.313C13.3324 177.405 13.4148 177.5 13.4937 177.597C13.944 178.154 13.471 178.985 12.765 178.882L12.749 178.88C12.7375 178.878 12.7276 178.877 12.7161 178.875C12.8004 179.773 13.0326 180.655 13.4124 181.471C13.0215 184.72 15.3461 185.76 18.207 185.664L18.2085 185.665C18.1047 186.998 18.14 188.343 18.3107 189.668L22.6883 191.023C22.7192 190.979 22.7491 190.932 22.7785 190.888C22.3658 190.788 21.9653 190.637 21.5899 190.439C22.0398 190.136 22.4907 189.83 22.9406 189.527C22.9509 189.521 22.9597 189.515 22.9684 189.509C23.1972 189.354 23.4271 189.2 23.6559 189.045L23.656 189.045C23.8629 188.414 23.9837 187.758 24.0252 187.099Z" fill="#C5DFF8"/>
<path opacity="0.4" d="M0.564436 185.314C1.31017 185.361 1.72231 184.428 1.15811 183.884L1.10198 183.66C1.10937 183.642 1.1168 183.624 1.12428 183.606C1.87843 181.796 4.43433 181.808 5.18206 183.621C5.84574 185.23 6.6907 186.842 6.89875 188.543C6.99202 189.294 6.95006 190.059 6.78451 190.796C8.33959 187.377 9.15793 183.643 9.15793 179.888C9.15793 178.944 9.10663 178.001 9.00172 177.06C8.91545 176.29 8.79655 175.525 8.64266 174.767C7.81036 170.669 6.00813 166.766 3.40858 163.506C2.15893 162.818 1.11678 161.743 0.487289 160.455C0.261147 159.99 0.0839481 159.49 1.71661e-05 158.981C0.142231 159 0.536255 156.819 0.428993 156.686C0.627186 156.383 0.981916 156.232 1.19837 155.937C2.2749 154.468 3.75807 154.724 4.53235 156.721C6.18639 157.561 6.2024 158.955 5.18749 160.295C4.5418 161.148 4.45308 162.302 3.88653 163.215C3.94483 163.29 4.00545 163.363 4.06373 163.438C5.13258 164.818 6.05702 166.301 6.83634 167.86C6.61609 166.128 6.94126 164.041 7.49562 162.696C8.12666 161.164 9.30945 159.873 10.351 158.548C11.6022 156.957 14.1677 157.652 14.3881 159.669C14.3902 159.688 14.3923 159.708 14.3943 159.727C14.2396 159.815 14.0881 159.909 13.94 160.007C13.0955 160.569 13.3874 161.887 14.388 162.043L14.4107 162.046C14.3547 162.607 14.2591 163.163 14.1192 163.71C15.4555 168.912 12.5706 170.807 8.45152 170.892C8.36058 170.939 8.27198 170.986 8.18105 171.03C8.59839 172.213 8.93179 173.427 9.17891 174.656C9.4004 175.743 9.55428 176.841 9.64053 177.944C9.7478 179.336 9.73846 180.735 9.62188 182.124L9.62888 182.075C9.92496 180.545 10.7503 179.116 11.9487 178.125C13.7339 176.649 16.256 176.105 18.182 174.919C19.109 174.347 20.297 175.086 20.1352 176.168L20.1274 176.219C19.8406 176.337 19.5608 176.473 19.2904 176.625C19.1357 176.713 18.9841 176.807 18.836 176.905C17.9916 177.467 18.2834 178.785 19.284 178.941L19.3067 178.944C19.323 178.947 19.337 178.949 19.3533 178.951C18.8614 180.127 18.176 181.218 17.318 182.16C16.4825 186.701 12.894 187.131 9.05535 185.809H9.05301C8.63335 187.649 8.02018 189.447 7.23214 191.16H0.727436C0.704105 191.087 0.683128 191.012 0.662138 190.939C1.26366 190.977 1.86983 190.942 2.46203 190.832C1.97941 190.235 1.49682 189.635 1.0142 189.038C1.00254 189.027 0.993204 189.015 0.983887 189.003C0.73909 188.698 0.491953 188.395 0.247156 188.09L0.247026 188.09C0.231703 187.153 0.343437 186.22 0.564436 185.314Z" fill="#1A5A96"/>
<path d="M229.499 190.672C229.499 190.974 229.024 191.216 228.433 191.216H1.58591C0.994838 191.216 0.520142 190.974 0.520142 190.672C0.520142 190.37 0.994838 190.127 1.58591 190.127H228.433C229.024 190.127 229.499 190.37 229.499 190.672Z" fill="#CCCCCC"/>
<path d="M253.668 191.066H141.857C141.208 191.066 140.566 190.967 139.948 190.772L139.882 190.746C104.871 173.355 74.8538 163.863 48.115 161.728L48.0132 161.708C45.3681 160.871 43.5911 158.447 43.5911 155.674V6.33414C43.5911 4.29494 44.5352 2.4341 46.1809 1.22901C47.8269 0.0239079 49.8864 -0.314244 51.8325 0.300148L140.224 28.2443C140.753 28.4117 141.303 28.4964 141.857 28.4964H253.668C257.16 28.4964 260 31.3355 260 34.8249V184.738C260 188.228 257.16 191.066 253.668 191.066ZM140.257 189.91C140.776 190.07 141.314 190.151 141.857 190.151H253.668C256.654 190.151 259.084 187.723 259.084 184.738V34.8249C259.084 31.8401 256.654 29.4118 253.668 29.4118H141.857C141.209 29.4118 140.566 29.3128 139.948 29.1173L51.5561 1.17313C49.8918 0.646571 48.1302 0.936671 46.7223 1.96744C45.3144 2.99843 44.507 4.58996 44.507 6.33414V155.674C44.507 158.029 46.0052 160.09 48.2411 160.82C75.0768 162.972 105.177 172.488 140.257 189.91Z" fill="#3F3D56"/>
<path opacity="0.2" d="M144.843 184.285C175.329 173.503 209.339 174.741 245.47 183.21C250.006 184.273 254.355 180.86 254.355 176.203V39.7498C254.355 36.4362 252.095 33.539 248.874 32.7518C210.759 23.436 175.157 21.722 143.783 32.7919C141.484 33.6029 138.933 33.1635 136.993 31.6879C110.555 11.5727 83.4968 1.48711 55.6309 4.48177C51.9855 4.87353 49.2358 7.97864 49.2358 11.6432V149.585C49.2358 153.278 52.0318 156.367 55.7073 156.749C85.7008 159.866 113.262 169.316 138.893 183.786C140.708 184.811 142.878 184.98 144.843 184.285Z" fill="#1A5A96"/>
<path d="M143.863 176.633C141.787 176.633 139.742 176.063 137.94 174.944C116.414 161.582 92.962 153.776 68.2356 151.743C62.4387 151.267 57.8976 146.325 57.8976 140.492V22.6674C57.8976 16.62 62.5899 11.6648 68.5802 11.3866C86.5828 10.5476 108.442 18.5718 137.368 36.6302C139.814 38.1574 142.79 38.6108 145.531 37.876C173.022 30.5005 202.821 30.2851 236.634 37.2173C241.883 38.2937 245.693 42.9505 245.693 48.2905V163.298C245.693 166.769 244.131 169.992 241.408 172.142C238.665 174.308 235.135 175.084 231.724 174.272C199.737 166.663 172.271 167.213 147.753 175.955C146.48 176.409 145.165 176.633 143.863 176.633ZM71.1502 12.243C70.298 12.243 69.4574 12.2623 68.6227 12.3011C63.1223 12.5566 58.8135 17.1099 58.8135 22.6674V140.492C58.8135 145.852 62.9852 150.393 68.3107 150.831C93.1833 152.876 116.773 160.727 138.423 174.167C141.117 175.839 144.406 176.176 147.445 175.093C172.134 166.29 199.771 165.73 231.936 173.382C235.073 174.128 238.318 173.415 240.84 171.424C243.342 169.449 244.777 166.487 244.777 163.298V48.2905C244.777 43.3832 241.275 39.1034 236.449 38.114C202.78 31.2106 173.118 31.422 145.769 38.7601C142.782 39.5607 139.544 39.0679 136.882 37.4066C109.47 20.2932 88.4783 12.243 71.1502 12.243Z" fill="white"/>
<path d="M141.784 38.5599L140.868 38.5684L142.142 176.424L143.058 176.415L141.784 38.5599Z" fill="white"/>
<path d="M66.8265 29.4621L66.5389 30.3311L130.668 51.5394L130.956 50.6705L66.8265 29.4621Z" fill="#3F3D56"/>
<path d="M66.8265 46.4289L66.5389 47.2979L130.668 68.5062L130.956 67.6373L66.8265 46.4289Z" fill="#3F3D56"/>
<path d="M66.8265 63.3957L66.5389 64.2646L130.668 85.473L130.956 84.6041L66.8265 63.3957Z" fill="#3F3D56"/>
<path d="M66.8265 80.3625L66.5389 81.2314L130.668 102.44L130.956 101.571L66.8265 80.3625Z" fill="#3F3D56"/>
<path d="M234.079 51.5898H157.218V52.5053H234.079V51.5898Z" fill="#3F3D56"/>
<path d="M234.079 67.6143H157.218V68.5297H234.079V67.6143Z" fill="#3F3D56"/>
<path d="M234.079 83.6377H157.218V84.5531H234.079V83.6377Z" fill="#3F3D56"/>
<path d="M234.079 99.6621H157.218V100.578H234.079V99.6621Z" fill="#3F3D56"/>
<path d="M234.079 115.686H157.218V116.601H234.079V115.686Z" fill="#3F3D56"/>
<path d="M234.079 131.711H157.218V132.626H234.079V131.711Z" fill="#3F3D56"/>
<path d="M237.307 178.708C243.124 178.708 247.84 173.994 247.84 168.18C247.84 162.366 243.124 157.652 237.307 157.652C231.49 157.652 226.774 162.366 226.774 168.18C226.774 173.994 231.49 178.708 237.307 178.708Z" fill="#1A5A96"/>
<g clip-path="url(#clip0_295_3633)">
<path d="M235.613 172.312L231.892 168.593C231.668 168.37 231.668 168.007 231.892 167.784L232.702 166.975C232.925 166.751 233.288 166.751 233.511 166.975L236.018 169.48L241.386 164.114C241.61 163.89 241.972 163.89 242.196 164.114L243.006 164.923C243.229 165.146 243.229 165.509 243.006 165.732L236.422 172.312C236.199 172.535 235.836 172.535 235.613 172.312Z" fill="white"/>
</g>
<g clip-path="url(#clip1_295_3633)">
<path d="M64.4949 76.746L62.811 73.8309C62.7099 73.6558 62.7699 73.4319 62.9451 73.3307L63.5797 72.9645C63.7549 72.8634 63.979 72.9234 64.0802 73.0986L65.2145 75.0623L69.4228 72.6339C69.598 72.5328 69.8221 72.5928 69.9232 72.7679L70.2896 73.4022C70.3908 73.5773 70.3307 73.8013 70.1555 73.9024L64.9954 76.8801C64.8202 76.9812 64.5961 76.9212 64.4949 76.746Z" fill="#1A5A96"/>
</g>
<g clip-path="url(#clip2_295_3633)">
<path d="M64.4949 60.7265L62.811 57.8114C62.7099 57.6363 62.7699 57.4123 62.9451 57.3112L63.5797 56.945C63.7549 56.8439 63.979 56.9039 64.0802 57.079L65.2145 59.0428L69.4228 56.6144C69.598 56.5133 69.8221 56.5733 69.9232 56.7484L70.2896 57.3827C70.3908 57.5578 70.3307 57.7817 70.1555 57.8829L64.9954 60.8605C64.8202 60.9617 64.5961 60.9016 64.4949 60.7265Z" fill="#1A5A96"/>
</g>
<g clip-path="url(#clip3_295_3633)">
<path d="M64.4949 42.8749L62.811 39.9598C62.7099 39.7847 62.7699 39.5608 62.9451 39.4596L63.5797 39.0935C63.7549 38.9923 63.979 39.0523 64.0802 39.2275L65.2145 41.1912L69.4228 38.7628C69.598 38.6617 69.8221 38.7217 69.9232 38.8969L70.2896 39.5311C70.3908 39.7062 70.3307 39.9302 70.1555 40.0313L64.9954 43.009C64.8202 43.1101 64.5961 43.0501 64.4949 42.8749Z" fill="#1A5A96"/>
</g>
<path d="M87.3157 138.505C87.7259 133.814 89.6748 129.332 92.7937 125.805C95.832 122.369 99.9848 120.012 104.463 119.052C106.963 118.516 109.553 118.412 112.085 118.773C112.691 118.859 112.675 119.821 112.062 119.733C107.753 119.119 103.3 119.87 99.4278 121.858C95.4593 123.897 92.283 127.212 90.3208 131.21C89.1988 133.496 88.4988 135.991 88.277 138.528C88.2233 139.142 87.2617 139.123 87.3157 138.505Z" fill="white"/>
<path d="M111.019 114.915L118.42 118.565C118.69 118.697 118.734 119.136 118.505 119.325L111.498 125.114C111.024 125.506 110.356 124.813 110.834 124.418L117.841 118.629L117.926 119.389L110.524 115.739C109.968 115.465 110.467 114.643 111.019 114.915Z" fill="white"/>
<path d="M158.032 108.938L159.464 107.507C159.64 107.331 159.64 107.047 159.464 106.871L159.146 106.553C158.97 106.377 158.685 106.377 158.51 106.553L157.077 107.984L155.645 106.553C155.47 106.377 155.185 106.377 155.009 106.553L154.691 106.871C154.515 107.046 154.515 107.331 154.691 107.507L156.123 108.938L154.691 110.37C154.515 110.545 154.515 110.83 154.691 111.006L155.009 111.324C155.185 111.5 155.47 111.5 155.645 111.324L157.077 109.893L158.51 111.324C158.685 111.5 158.97 111.5 159.146 111.324L159.464 111.006C159.64 110.83 159.64 110.546 159.464 110.37L158.032 108.938Z" fill="#1A5A96"/>
<path d="M158.032 92.4599L159.464 91.0285C159.64 90.8528 159.64 90.568 159.464 90.3922L159.146 90.0741C158.97 89.8985 158.685 89.8985 158.51 90.0741L157.077 91.5055L155.645 90.0741C155.47 89.8985 155.185 89.8985 155.009 90.0741L154.691 90.3922C154.515 90.5679 154.515 90.8527 154.691 91.0285L156.123 92.4599L154.691 93.8912C154.515 94.0669 154.515 94.3517 154.691 94.5275L155.009 94.8456C155.185 95.0212 155.47 95.0212 155.645 94.8456L157.077 93.4142L158.51 94.8456C158.685 95.0212 158.97 95.0212 159.146 94.8456L159.464 94.5275C159.64 94.3518 159.64 94.067 159.464 93.8912L158.032 92.4599Z" fill="#1A5A96"/>
<path d="M158.032 76.8974L159.464 75.466C159.64 75.2903 159.64 75.0055 159.464 74.8297L159.146 74.5116C158.97 74.336 158.685 74.336 158.51 74.5116L157.077 75.943L155.645 74.5116C155.47 74.336 155.185 74.336 155.009 74.5116L154.691 74.8297C154.515 75.0054 154.515 75.2902 154.691 75.466L156.123 76.8974L154.691 78.3287C154.515 78.5044 154.515 78.7892 154.691 78.965L155.009 79.2831C155.185 79.4587 155.47 79.4587 155.645 79.2831L157.077 77.8517L158.51 79.2831C158.685 79.4587 158.97 79.4587 159.146 79.2831L159.464 78.965C159.64 78.7893 159.64 78.5045 159.464 78.3287L158.032 76.8974Z" fill="#1A5A96"/>
<path d="M158.032 60.4198L159.464 58.9884C159.64 58.8128 159.64 58.528 159.464 58.3522L159.146 58.0341C158.97 57.8584 158.685 57.8584 158.51 58.0341L157.077 59.4655L155.645 58.0341C155.47 57.8584 155.185 57.8584 155.009 58.0341L154.691 58.3522C154.515 58.5279 154.515 58.8126 154.691 58.9884L156.123 60.4198L154.691 61.8512C154.515 62.0269 154.515 62.3116 154.691 62.4874L155.009 62.8056C155.185 62.9812 155.47 62.9812 155.645 62.8056L157.077 61.3742L158.51 62.8056C158.685 62.9812 158.97 62.9812 159.146 62.8056L159.464 62.4874C159.64 62.3118 159.64 62.027 159.464 61.8512L158.032 60.4198Z" fill="#1A5A96"/>
<defs>
<clipPath id="clip0_295_3633">
<rect width="11.4489" height="11.4431" fill="white" transform="translate(231.724 162.491)"/>
</clipPath>
<clipPath id="clip1_295_3633">
<rect width="7.32707" height="7.32382" fill="white" transform="matrix(0.965959 0.258695 -0.258943 0.965893 63.7186 70.0312)"/>
</clipPath>
<clipPath id="clip2_295_3633">
<rect width="7.32707" height="7.32382" fill="white" transform="matrix(0.965959 0.258695 -0.258943 0.965893 63.7186 54.0117)"/>
</clipPath>
<clipPath id="clip3_295_3633">
<rect width="7.32707" height="7.32382" fill="white" transform="matrix(0.965959 0.258695 -0.258943 0.965893 63.7186 36.1602)"/>
</clipPath>
</defs>
</svg>
