<svg width="260" height="226" viewBox="0 0 260 226" fill="none" xmlns="http://www.w3.org/2000/svg">
<path opacity="0.3" d="M259.658 64.24C259.658 119.831 214.456 164.895 158.707 164.895C104.096 164.895 59.6077 121.647 57.8158 67.6342C69.326 67.9626 81.0507 67.5844 91.927 63.8468C103.717 59.8007 113.809 52.0568 124.666 45.9304C153.83 29.5319 188.635 25.1175 221.953 28.3624C233.268 29.4622 245.003 31.7515 255.625 35.9619C258.307 45.1411 259.665 54.6543 259.658 64.2151V64.24Z" fill="#1A5A96"/>
<path opacity="0.2" d="M260 72.374C260 144.067 201.791 202.185 130 202.185C58.2091 202.185 0 144.067 0 72.374C0 69.0963 0.122131 65.8443 0.366383 62.6181C10.6183 63.8687 20.6241 66.6489 30.0494 70.8657C45.2959 77.7012 58.8583 88.1952 74.7154 93.4646C86.2853 97.3157 98.5879 98.2335 110.762 98.5993C125.963 99.0807 141.486 98.6956 155.865 93.7471C171.047 88.5289 184.038 78.542 198.024 70.6731C216.62 60.1983 237.015 53.5168 258.065 49.9482C259.354 57.3542 260.001 64.8571 260 72.374Z" fill="#1A5A96"/>
<rect opacity="0.5" x="145.053" y="49.9473" width="78.6842" height="78" rx="8" fill="white"/>
<rect x="83.4737" y="71.8418" width="92.7105" height="92.0263" rx="8" fill="white"/>
<rect opacity="0.5" x="36.2632" y="49.9473" width="78.6842" height="78" rx="8" fill="white"/>
<path d="M50.273 73.5107C49.5552 73.5107 48.8668 73.7959 48.3592 74.3035C47.8516 74.8111 47.5664 75.4995 47.5664 76.2174C47.5664 76.9352 47.8516 77.6237 48.3592 78.1313C48.8668 78.6388 49.5552 78.924 50.273 78.924H84.2954V77.7432C84.2953 76.9041 84.5036 76.0781 84.9016 75.3393C85.2996 74.6006 85.8749 73.9723 86.5757 73.5107H50.273Z" fill="#B7D5F1"/>
<path d="M81.2313 67.4211H69.7281C69.0103 67.4211 68.3218 67.1359 67.8142 66.6283C67.3066 66.1207 67.0215 65.4323 67.0215 64.7144C67.0215 63.9966 67.3066 63.3082 67.8142 62.8006C68.3218 62.293 69.0103 62.0078 69.7281 62.0078H81.2313C81.9491 62.0078 82.6376 62.293 83.1452 62.8006C83.6528 63.3082 83.9379 63.9966 83.9379 64.7144C83.9379 65.4323 83.6528 66.1207 83.1452 66.6283C82.6376 67.1359 81.9491 67.4211 81.2313 67.4211Z" fill="#B7D5F1"/>
<path d="M55.4321 48.1359H10.7727C10.0548 48.1359 9.36639 47.8508 8.8588 47.3432C8.35121 46.8356 8.06604 46.1471 8.06604 45.4293C8.06604 44.7114 8.35121 44.023 8.8588 43.5154C9.36639 43.0078 10.0548 42.7227 10.7727 42.7227H55.4321C56.15 42.7227 56.8384 43.0078 57.346 43.5154C57.8536 44.023 58.1387 44.7114 58.1387 45.4293C58.1387 46.1471 57.8536 46.8356 57.346 47.3432C56.8384 47.8508 56.15 48.1359 55.4321 48.1359Z" fill="#C5DFF8"/>
<path d="M35.9782 36.633H30.2266C29.5087 36.633 28.8203 36.3478 28.3127 35.8402C27.8051 35.3326 27.52 34.6442 27.52 33.9264C27.52 33.2085 27.8051 32.5201 28.3127 32.0125C28.8203 31.5049 29.5087 31.2197 30.2266 31.2197H35.9782C36.696 31.2197 37.3845 31.5049 37.8921 32.0125C38.3997 32.5201 38.6848 33.2085 38.6848 33.9264C38.6848 34.6442 38.3997 35.3326 37.8921 35.8402C37.3845 36.3478 36.696 36.633 35.9782 36.633Z" fill="#C5DFF8"/>
<path d="M83.9555 127.946H41.8545C40.3296 127.944 38.8677 127.337 37.7894 126.259C36.7111 125.181 36.1046 123.719 36.1029 122.194V55.5973C36.1046 54.0724 36.7111 52.6105 37.7894 51.5322C38.8677 50.4539 40.3296 49.8474 41.8545 49.8457H109.105C110.63 49.8474 112.092 50.4539 113.171 51.5322C114.249 52.6105 114.855 54.0724 114.857 55.5973V72.1036H114.18V55.5973C114.179 54.2518 113.644 52.9619 112.692 52.0105C111.741 51.059 110.451 50.5239 109.105 50.5224H41.8545C40.509 50.5239 39.2191 51.059 38.2677 52.0105C37.3163 52.9619 36.7811 54.2518 36.7796 55.5973V122.194C36.7811 123.539 37.3163 124.829 38.2677 125.781C39.2191 126.732 40.509 127.267 41.8545 127.269H83.9555V127.946Z" fill="#3F3D56"/>
<path d="M36.4412 88.0785H5.75159C4.2267 88.0768 2.76476 87.4703 1.6865 86.392C0.608242 85.3138 0.00171664 83.8518 0 82.3269V28.1744C0.00171664 26.6496 0.608242 25.1876 1.6865 24.1093C2.76476 23.0311 4.2267 22.4246 5.75159 22.4229H60.4531C61.978 22.4246 63.4399 23.0311 64.5182 24.1093C65.5965 25.1876 66.203 26.6496 66.2047 28.1744V50.1843H65.528V28.1744C65.5265 26.829 64.9913 25.539 64.0399 24.5876C63.0885 23.6362 61.7986 23.101 60.4531 23.0995H5.75159C4.4061 23.101 3.11616 23.6362 2.16476 24.5876C1.21335 25.539 0.67818 26.829 0.676658 28.1744V82.3269C0.67818 83.6724 1.21335 84.9623 2.16476 85.9137C3.11616 86.8652 4.4061 87.4003 5.75159 87.4018H36.4412V88.0785Z" fill="#3F3D56"/>
<path d="M173.425 73.5107C174.126 73.9723 174.701 74.6006 175.099 75.3393C175.497 76.0781 175.705 76.9041 175.705 77.7432V78.924H209.727C210.445 78.924 211.134 78.6388 211.641 78.1313C212.149 77.6237 212.434 76.9352 212.434 76.2174C212.434 75.4995 212.149 74.8111 211.641 74.3035C211.134 73.7959 210.445 73.5107 209.727 73.5107H173.425Z" fill="#B7D5F1"/>
<path d="M176.062 64.7135C176.063 63.9959 176.348 63.3079 176.855 62.8005C177.363 62.2931 178.051 62.0077 178.768 62.0068H190.272C190.989 62.0068 191.678 62.292 192.186 62.7996C192.693 63.3072 192.978 63.9956 192.978 64.7135C192.978 65.4313 192.693 66.1198 192.186 66.6273C191.678 67.1349 190.989 67.4201 190.272 67.4201H178.768C178.051 67.4193 177.363 67.1339 176.855 66.6264C176.348 66.119 176.063 65.4311 176.062 64.7135Z" fill="#B7D5F1"/>
<path d="M201.861 45.4293C201.862 44.7117 202.147 44.0237 202.655 43.5163C203.162 43.0089 203.85 42.7235 204.568 42.7227H249.227C249.945 42.7227 250.634 43.0078 251.141 43.5154C251.649 44.023 251.934 44.7114 251.934 45.4293C251.934 46.1471 251.649 46.8356 251.141 47.3432C250.634 47.8508 249.945 48.1359 249.227 48.1359H204.568C203.85 48.1351 203.162 47.8497 202.655 47.3423C202.147 46.8348 201.862 46.1469 201.861 45.4293Z" fill="#C5DFF8"/>
<path d="M221.315 33.9264C221.316 33.2088 221.601 32.5208 222.109 32.0134C222.616 31.506 223.304 31.2205 224.022 31.2197H229.773C230.491 31.2197 231.18 31.5049 231.687 32.0125C232.195 32.5201 232.48 33.2085 232.48 33.9264C232.48 34.6442 232.195 35.3326 231.687 35.8402C231.18 36.3478 230.491 36.633 229.773 36.633H224.022C223.304 36.6322 222.616 36.3467 222.109 35.8393C221.601 35.3319 221.316 34.644 221.315 33.9264Z" fill="#C5DFF8"/>
<path d="M176.045 127.946H218.146C219.67 127.944 221.132 127.337 222.211 126.259C223.289 125.181 223.895 123.719 223.897 122.194V55.5973C223.895 54.0724 223.289 52.6105 222.211 51.5322C221.132 50.4539 219.67 49.8474 218.146 49.8457H150.895C149.37 49.8474 147.908 50.4539 146.83 51.5322C145.751 52.6105 145.145 54.0724 145.143 55.5973V72.1036H145.82V55.5973C145.821 54.2518 146.356 52.9619 147.308 52.0105C148.259 51.059 149.549 50.5239 150.895 50.5224H218.146C219.491 50.5239 220.781 51.059 221.732 52.0105C222.684 52.9619 223.219 54.2518 223.221 55.5973V122.194C223.219 123.539 222.684 124.829 221.732 125.781C220.781 126.732 219.491 127.267 218.146 127.269H176.045V127.946Z" fill="#3F3D56"/>
<path d="M223.559 88.0785H254.248C255.773 88.0768 257.235 87.4703 258.313 86.392C259.392 85.3138 259.998 83.8518 260 82.3269V28.1744C259.998 26.6496 259.392 25.1876 258.313 24.1093C257.235 23.0311 255.773 22.4246 254.248 22.4229H199.547C198.022 22.4246 196.56 23.0311 195.482 24.1093C194.404 25.1876 193.797 26.6496 193.795 28.1744V50.1843H194.472V28.1744C194.473 26.829 195.009 25.539 195.96 24.5876C196.911 23.6362 198.201 23.101 199.547 23.0995H254.248C255.594 23.101 256.884 23.6362 257.835 24.5876C258.787 25.539 259.322 26.829 259.323 28.1744V82.3269C259.322 83.6724 258.787 84.9623 257.835 85.9137C256.884 86.8652 255.594 87.4003 254.248 87.4018H223.559V88.0785Z" fill="#3F3D56"/>
<path d="M170.488 71.9912H89.3702C87.8457 71.9942 86.3845 72.6012 85.3065 73.6792C84.2286 74.7571 83.6216 76.2183 83.6186 77.7428V158.093C83.6202 159.617 84.2267 161.08 85.3049 162.158C86.3832 163.236 87.8453 163.843 89.3702 163.844H170.488C172.013 163.843 173.475 163.236 174.553 162.158C175.631 161.08 176.238 159.617 176.239 158.093V77.7428C176.238 76.2179 175.631 74.7559 174.553 73.6776C173.475 72.5993 172.013 71.9928 170.488 71.9912ZM175.563 158.093C175.561 159.438 175.026 160.728 174.075 161.679C173.123 162.631 171.833 163.166 170.488 163.167H89.3702C88.0247 163.166 86.7349 162.631 85.7835 161.679C84.8321 160.728 84.2969 159.438 84.2952 158.093V77.7428C84.2973 76.3975 84.8327 75.1079 85.784 74.1566C86.7352 73.2053 88.0249 72.6699 89.3702 72.6679H170.488C171.833 72.6695 173.123 73.2047 174.075 74.1561C175.026 75.1075 175.561 76.3974 175.563 77.7428V158.093Z" fill="#3F3D56"/>
<path d="M164.1 103.283H95.7574C95.0396 103.283 94.3511 102.998 93.8435 102.491C93.3359 101.983 93.0508 101.295 93.0508 100.577C93.0508 99.8589 93.3359 99.1705 93.8435 98.6629C94.3511 98.1553 95.0396 97.8701 95.7574 97.8701H164.1C164.818 97.8701 165.506 98.1553 166.014 98.6629C166.521 99.1705 166.807 99.8589 166.807 100.577C166.807 101.295 166.521 101.983 166.014 102.491C165.506 102.998 164.818 103.283 164.1 103.283Z" fill="#1A5A96"/>
<path d="M144.646 91.7805H115.211C114.494 91.7805 113.805 91.4953 113.298 90.9877C112.79 90.4801 112.505 89.7917 112.505 89.0738C112.505 88.356 112.79 87.6675 113.298 87.1599C113.805 86.6523 114.494 86.3672 115.211 86.3672H144.646C145.364 86.3672 146.052 86.6523 146.56 87.1599C147.067 87.6675 147.353 88.356 147.353 89.0738C147.353 89.7917 147.067 90.4801 146.56 90.9877C146.052 91.4953 145.364 91.7805 144.646 91.7805Z" fill="#FCBA19"/>
<path d="M125.023 119.524H95.5883C94.8704 119.524 94.182 119.238 93.6744 118.731C93.1668 118.223 92.8817 117.535 92.8817 116.817C92.8817 116.099 93.1668 115.411 93.6744 114.903C94.182 114.396 94.8704 114.11 95.5883 114.11H125.023C125.741 114.11 126.429 114.396 126.937 114.903C127.444 115.411 127.73 116.099 127.73 116.817C127.73 117.535 127.444 118.223 126.937 118.731C126.429 119.238 125.741 119.524 125.023 119.524Z" fill="#1A5A96"/>
<path d="M125.023 131.364H95.5883C94.8704 131.364 94.182 131.079 93.6744 130.572C93.1668 130.064 92.8817 129.376 92.8817 128.658C92.8817 127.94 93.1668 127.252 93.6744 126.744C94.182 126.236 94.8704 125.951 95.5883 125.951H125.023C125.741 125.951 126.429 126.236 126.937 126.744C127.444 127.252 127.73 127.94 127.73 128.658C127.73 129.376 127.444 130.064 126.937 130.572C126.429 131.079 125.741 131.364 125.023 131.364Z" fill="#1A5A96"/>
<path d="M125.023 143.206H95.5883C94.8704 143.206 94.182 142.921 93.6744 142.413C93.1668 141.906 92.8817 141.217 92.8817 140.5C92.8817 139.782 93.1668 139.093 93.6744 138.586C94.182 138.078 94.8704 137.793 95.5883 137.793H125.023C125.741 137.793 126.429 138.078 126.937 138.586C127.444 139.093 127.73 139.782 127.73 140.5C127.73 141.217 127.444 141.906 126.937 142.413C126.429 142.921 125.741 143.206 125.023 143.206Z" fill="#1A5A96"/>
<path d="M161.734 121.844C164.523 121.844 166.785 119.583 166.785 116.793C166.785 114.004 164.523 111.742 161.734 111.742C158.944 111.742 156.683 114.004 156.683 116.793C156.683 119.583 158.944 121.844 161.734 121.844Z" fill="#FCBA19"/>
<path d="M161.233 118.719C161.12 118.72 161.009 118.683 160.918 118.615L160.912 118.61L159.725 117.702C159.614 117.617 159.542 117.492 159.523 117.353C159.505 117.214 159.543 117.074 159.628 116.963C159.713 116.852 159.839 116.779 159.977 116.761C160.116 116.742 160.256 116.78 160.367 116.865L161.136 117.455L162.953 115.084C162.995 115.029 163.048 114.983 163.108 114.949C163.168 114.914 163.234 114.892 163.302 114.882C163.371 114.873 163.441 114.878 163.508 114.896C163.575 114.914 163.637 114.945 163.692 114.987L163.681 115.003L163.693 114.987C163.804 115.072 163.876 115.198 163.894 115.336C163.913 115.475 163.875 115.615 163.79 115.726L161.653 118.513C161.604 118.577 161.54 118.629 161.467 118.665C161.395 118.701 161.315 118.719 161.234 118.719L161.233 118.719Z" fill="white"/>
<path d="M33.1024 15.7016C31.5497 15.7016 30.0318 15.2411 28.7407 14.3785C27.4497 13.5158 26.4434 12.2897 25.8492 10.8551C25.255 9.42058 25.0996 7.84205 25.4025 6.31915C25.7054 4.79625 26.4532 3.39738 27.5511 2.29943C28.6491 1.20148 30.0479 0.453773 31.5708 0.150852C33.0937 -0.152069 34.6723 0.00340261 36.1068 0.597611C37.5414 1.19182 38.7675 2.19808 39.6301 3.48913C40.4928 4.78019 40.9532 6.29805 40.9532 7.85079C40.9509 9.93223 40.123 11.9277 38.6512 13.3995C37.1794 14.8713 35.1838 15.6992 33.1024 15.7016ZM33.1024 0.676662C31.6835 0.67667 30.2965 1.09743 29.1167 1.88574C27.9369 2.67405 27.0174 3.7945 26.4744 5.1054C25.9314 6.4163 25.7893 7.85878 26.0662 9.25042C26.343 10.6421 27.0263 11.9204 28.0296 12.9237C29.0329 13.927 30.3112 14.6103 31.7029 14.8871C33.0945 15.1639 34.537 15.0218 35.8479 14.4788C37.1588 13.9358 38.2792 13.0163 39.0675 11.8365C39.8558 10.6567 40.2766 9.2697 40.2766 7.85079C40.2744 5.94875 39.5179 4.12522 38.1729 2.78028C36.828 1.43533 35.0044 0.678803 33.1024 0.676662Z" fill="#3F3D56"/>
<path d="M32.3579 10.7166C32.1889 10.7168 32.0244 10.6622 31.8891 10.5608L31.8808 10.5545L30.1152 9.2039C30.0334 9.14122 29.9648 9.06304 29.9133 8.97383C29.8617 8.88462 29.8282 8.78613 29.8147 8.68398C29.8012 8.58184 29.808 8.47803 29.8346 8.3785C29.8613 8.27896 29.9072 8.18565 29.9699 8.10388C30.0326 8.02211 30.1108 7.95349 30.2 7.90193C30.2892 7.85038 30.3877 7.8169 30.4898 7.8034C30.592 7.78991 30.6958 7.79667 30.7953 7.82329C30.8948 7.84992 30.9882 7.89589 31.0699 7.95858L32.2135 8.83552L34.9158 5.31004C34.9785 5.2283 35.0566 5.15971 35.1458 5.10817C35.235 5.05664 35.3334 5.02317 35.4355 5.00968C35.5377 4.9962 35.6414 5.00295 35.7409 5.02957C35.8404 5.05618 35.9337 5.10214 36.0154 5.1648L35.9989 5.18826L36.0161 5.16497C36.181 5.2917 36.2889 5.47868 36.3161 5.68487C36.3433 5.89105 36.2876 6.09961 36.1612 6.26476L32.9826 10.4097C32.9091 10.5052 32.8146 10.5824 32.7063 10.6355C32.5981 10.6886 32.4791 10.716 32.3586 10.7156L32.3579 10.7166Z" fill="#3F3D56"/>
<path d="M82.903 43.1059C81.3502 43.1059 79.8324 42.6454 78.5413 41.7827C77.2503 40.9201 76.244 39.6939 75.6498 38.2594C75.0556 36.8249 74.9002 35.2463 75.2031 33.7234C75.506 32.2005 76.2538 30.8017 77.3517 29.7037C78.4497 28.6058 79.8485 27.8581 81.3715 27.5551C82.8944 27.2522 84.4729 27.4077 85.9074 28.0019C87.342 28.5961 88.5681 29.6024 89.4307 30.8934C90.2934 32.1845 90.7538 33.7024 90.7538 35.2551C90.7515 37.3365 89.9236 39.3321 88.4517 40.8039C86.9799 42.2757 84.9844 43.1035 82.903 43.1059ZM82.903 28.081C81.4841 28.081 80.097 28.5017 78.9172 29.2901C77.7375 30.0784 76.818 31.1988 76.275 32.5097C75.732 33.8206 75.5899 35.2631 75.8668 36.6547C76.1436 38.0464 76.8269 39.3247 77.8302 40.328C78.8335 41.3313 80.1118 42.0146 81.5035 42.2914C82.8951 42.5682 84.3376 42.4261 85.6485 41.8831C86.9594 41.3401 88.0798 40.4206 88.8681 39.2408C89.6564 38.061 90.0772 36.674 90.0772 35.2551C90.075 33.353 89.3185 31.5295 87.9735 30.1846C86.6285 28.8396 84.805 28.0831 82.903 28.081Z" fill="#3F3D56"/>
<path d="M82.1586 38.1209C81.9896 38.1211 81.8251 38.0665 81.6899 37.9651L81.6815 37.9588L79.9159 36.6082C79.7508 36.4816 79.6427 36.2946 79.6155 36.0883C79.5882 35.882 79.644 35.6733 79.7706 35.5082C79.8972 35.343 80.0843 35.235 80.2906 35.2077C80.4968 35.1805 80.7055 35.2363 80.8707 35.3629L82.0142 36.2398L84.7166 32.7143C84.7792 32.6326 84.8574 32.564 84.9465 32.5125C85.0357 32.4609 85.1342 32.4275 85.2363 32.414C85.3384 32.4005 85.4421 32.4073 85.5416 32.4339C85.6411 32.4605 85.7344 32.5064 85.8161 32.5691L85.7996 32.5926L85.8168 32.5693C85.9817 32.696 86.0896 32.883 86.1168 33.0892C86.144 33.2953 86.0883 33.5039 85.9619 33.6691L82.7834 37.814C82.7098 37.9095 82.6153 37.9867 82.507 38.0398C82.3988 38.0929 82.2798 38.1203 82.1593 38.1199L82.1586 38.1209Z" fill="#3F3D56"/>
<path d="M161.734 133.685C164.523 133.685 166.785 131.424 166.785 128.634C166.785 125.844 164.523 123.583 161.734 123.583C158.944 123.583 156.683 125.844 156.683 128.634C156.683 131.424 158.944 133.685 161.734 133.685Z" fill="#FCBA19"/>
<path d="M161.233 130.561C161.12 130.561 161.009 130.525 160.918 130.456L160.912 130.452L159.725 129.544C159.67 129.502 159.624 129.45 159.59 129.39C159.555 129.33 159.532 129.263 159.523 129.195C159.514 129.126 159.519 129.056 159.537 128.989C159.555 128.922 159.586 128.86 159.628 128.805C159.67 128.75 159.722 128.704 159.782 128.669C159.842 128.634 159.909 128.612 159.977 128.603C160.046 128.594 160.116 128.598 160.183 128.616C160.25 128.634 160.312 128.665 160.367 128.707L161.136 129.297L162.953 126.926C162.995 126.871 163.048 126.825 163.108 126.79C163.168 126.756 163.234 126.733 163.302 126.724C163.371 126.715 163.441 126.72 163.508 126.738C163.575 126.756 163.637 126.786 163.692 126.829L163.681 126.844L163.693 126.829C163.804 126.914 163.876 127.04 163.894 127.178C163.913 127.317 163.875 127.457 163.79 127.568L161.653 130.355C161.604 130.419 161.54 130.471 161.467 130.507C161.395 130.542 161.315 130.561 161.234 130.561L161.233 130.561Z" fill="white"/>
<path d="M161.734 145.551C164.523 145.551 166.785 143.29 166.785 140.5C166.785 137.711 164.523 135.449 161.734 135.449C158.944 135.449 156.683 137.711 156.683 140.5C156.683 143.29 158.944 145.551 161.734 145.551Z" fill="#FCBA19"/>
<path d="M161.233 142.426C161.12 142.427 161.009 142.39 160.918 142.322L160.912 142.317L159.725 141.409C159.615 141.324 159.542 141.199 159.524 141.06C159.506 140.921 159.543 140.781 159.628 140.67C159.713 140.559 159.839 140.487 159.977 140.468C160.116 140.45 160.256 140.487 160.367 140.572L161.136 141.162L162.953 138.791C162.995 138.736 163.048 138.69 163.108 138.656C163.168 138.621 163.234 138.599 163.302 138.59C163.371 138.58 163.441 138.585 163.508 138.603C163.575 138.621 163.637 138.652 163.692 138.694L163.681 138.71L163.693 138.694C163.804 138.779 163.876 138.905 163.894 139.043C163.913 139.182 163.875 139.322 163.79 139.433L161.653 142.22C161.604 142.284 161.54 142.336 161.468 142.372C161.395 142.408 161.315 142.426 161.234 142.426L161.233 142.426Z" fill="white"/>
<path d="M129.936 65.0981C124.608 65.0072 122.186 60.9644 122.187 57.2466C122.187 53.5288 124.609 49.4865 129.925 49.3965H129.937C135.254 49.4872 137.675 53.5299 137.675 57.2478C137.675 60.9656 135.253 65.008 129.936 65.0981ZM129.931 50.0731C125.075 50.1581 122.864 53.8506 122.863 57.2466C122.863 60.6441 125.076 64.3385 129.936 64.4214C134.784 64.3391 136.998 60.6451 136.998 57.2478C136.998 53.8518 134.787 50.1592 129.931 50.0731Z" fill="#FCBA19"/>
<path d="M131.693 57.673C133.051 60.0324 129.323 60.9538 127.897 59.5325L128.254 58.7691C130.573 60.7722 132.616 57.3027 129.074 57.6324V56.796C132.318 57.0576 130.496 53.7928 128.335 55.7242L127.986 54.961C129.747 53.1334 133.7 55.3432 130.909 57.1695C131.22 57.2423 131.497 57.4202 131.693 57.673Z" fill="#FCBA19"/>
<path d="M177.635 43.1059C176.082 43.1059 174.565 42.6454 173.273 41.7827C171.982 40.9201 170.976 39.6939 170.382 38.2594C169.788 36.8249 169.632 35.2463 169.935 33.7234C170.238 32.2005 170.986 30.8017 172.084 29.7037C173.182 28.6058 174.581 27.8581 176.104 27.5551C177.627 27.2522 179.205 27.4077 180.64 28.0019C182.074 28.5961 183.3 29.6024 184.163 30.8934C185.026 32.1845 185.486 33.7024 185.486 35.2551C185.484 37.3365 184.656 39.3321 183.184 40.8039C181.712 42.2757 179.717 43.1035 177.635 43.1059ZM177.635 28.081C176.216 28.081 174.829 28.5017 173.649 29.2901C172.47 30.0784 171.55 31.1988 171.007 32.5097C170.464 33.8206 170.322 35.2631 170.599 36.6547C170.876 38.0464 171.559 39.3247 172.562 40.328C173.566 41.3313 174.844 42.0146 176.236 42.2914C177.627 42.5682 179.07 42.4261 180.381 41.8831C181.692 41.3401 182.812 40.4206 183.6 39.2408C184.389 38.061 184.809 36.674 184.809 35.2551C184.807 33.353 184.051 31.5295 182.706 30.1846C181.361 28.8396 179.537 28.0831 177.635 28.081Z" fill="#3F3D56"/>
<path d="M179.815 37.0169H178.995V38.1456H177.972V37.0169H175.455V36.2374L178.159 32.3643H178.995V36.1969H179.815V37.0169ZM177.972 36.1969V33.9963L176.446 36.1969H177.972Z" fill="#3F3D56"/>
<path d="M226.898 15.7016C225.345 15.7016 223.827 15.2411 222.536 14.3784C221.245 13.5158 220.239 12.2896 219.645 10.8551C219.05 9.42055 218.895 7.84203 219.198 6.31913C219.501 4.79623 220.249 3.39736 221.346 2.29942C222.444 1.20147 223.843 0.453765 225.366 0.150848C226.889 -0.15207 228.468 0.00340765 229.902 0.597618C231.337 1.19183 232.563 2.19808 233.425 3.48914C234.288 4.78019 234.749 6.29806 234.749 7.85079C234.746 9.93224 233.918 11.9277 232.446 13.3995C230.975 14.8713 228.979 15.6992 226.898 15.7016ZM226.898 0.676663C225.479 0.67668 224.092 1.09745 222.912 1.88576C221.732 2.67408 220.813 3.79453 220.27 5.10543C219.727 6.41633 219.585 7.85881 219.862 9.25045C220.138 10.6421 220.822 11.9204 221.825 12.9237C222.828 13.927 224.107 14.6103 225.498 14.8871C226.89 15.1639 228.332 15.0218 229.643 14.4788C230.954 13.9358 232.075 13.0163 232.863 11.8365C233.651 10.6567 234.072 9.2697 234.072 7.85079C234.07 5.94874 233.313 4.12521 231.968 2.78027C230.623 1.43532 228.8 0.678794 226.898 0.676663Z" fill="#3F3D56"/>
<path d="M228.067 7.24598C228.339 7.39618 228.562 7.62175 228.708 7.89555C228.864 8.19193 228.942 8.52292 228.936 8.85767C228.943 9.2095 228.853 9.55649 228.676 9.8606C228.499 10.1539 228.239 10.3883 227.929 10.5345C227.576 10.7003 227.19 10.7822 226.8 10.774C226.435 10.7737 226.073 10.7119 225.728 10.5913C225.409 10.4879 225.113 10.3208 224.86 10.1001L225.209 9.33676C225.662 9.71133 226.228 9.92295 226.816 9.93776C227.119 9.95845 227.417 9.86089 227.649 9.66567C227.836 9.45186 227.939 9.17694 227.937 8.89274C227.936 8.60854 227.83 8.3347 227.641 8.12287C227.534 8.02457 227.41 7.94845 227.274 7.89895C227.138 7.84945 226.993 7.82758 226.849 7.83462C226.629 7.83318 226.411 7.87599 226.207 7.9605C226.007 8.0444 225.827 8.17037 225.68 8.32989H225.046V4.92773H228.668V5.73969H226.069V7.31487C226.377 7.11026 226.74 7.00538 227.109 7.01454C227.443 7.00751 227.773 7.08726 228.067 7.24598Z" fill="#3F3D56"/>
<path opacity="0.1" d="M130 225.789C201.797 225.789 260 224.717 260 223.395C260 222.072 201.797 221 130 221C58.203 221 0 222.072 0 223.395C0 224.717 58.203 225.789 130 225.789Z" fill="#3F3D56"/>
</svg>
