<svg width="16" height="16" viewBox="0 0 16 16" fill="none" xmlns="http://www.w3.org/2000/svg">
<g clip-path="url(#clip0_295_3685)">
<path d="M7.75 0.242188C3.60254 0.242188 0.242188 3.60254 0.242188 7.75C0.242188 11.8975 3.60254 15.2578 7.75 15.2578C11.8975 15.2578 15.2578 11.8975 15.2578 7.75C15.2578 3.60254 11.8975 0.242188 7.75 0.242188ZM11.4313 9.7208C11.5735 9.86309 11.5735 10.0932 11.4313 10.2354L10.2324 11.4313C10.0901 11.5735 9.86006 11.5735 9.71777 11.4313L7.75 9.44531L5.7792 11.4313C5.63691 11.5735 5.40684 11.5735 5.26455 11.4313L4.06875 10.2324C3.92646 10.0901 3.92646 9.86006 4.06875 9.71777L6.05469 7.75L4.06875 5.7792C3.92646 5.63691 3.92646 5.40684 4.06875 5.26455L5.26758 4.06572C5.40986 3.92344 5.63994 3.92344 5.78223 4.06572L7.75 6.05469L9.7208 4.06875C9.86309 3.92646 10.0932 3.92646 10.2354 4.06875L11.4343 5.26758C11.5766 5.40986 11.5766 5.63994 11.4343 5.78223L9.44531 7.75L11.4313 9.7208Z" fill="#D8292F"/>
</g>
<defs>
<clipPath id="clip0_295_3685">
<rect width="15.5" height="15.5" fill="white"/>
</clipPath>
</defs>
</svg>
